<svg width="421" height="310" viewBox="0 0 421 310" fill="none" xmlns="http://www.w3.org/2000/svg"><g clip-path="url(#clip0)"><path fill-rule="evenodd" clip-rule="evenodd" d="M168.235 218.101c30.457-16.288 63.72-11.03 99.458 7.206 33.913 15.626 58.401 2.881 77.1-30.841 25.859-53.758-14.851-106.369-110.223-152.2C156.094 3.986 101.293 17.904 59.758 66.74c-69.364 85.125 15.78 200.083 108.477 151.361z" fill="url(#paint0_linear)"/><path fill-rule="evenodd" clip-rule="evenodd" d="M195.46 252.748c-18.235 5.166-49.67 7.293-89.733 7.66-37.18.604-52.017 4.704-51.357 11.492 4.473 10.474 66.023 14.911 171.523 13.499 87.094-1.074 127.598-8.022 139.16-19.126 17.526-19.087-113.665-29.117-169.593-13.525z" fill="url(#paint1_linear)"/><g clip-path="url(#clip1)"><path fill-rule="evenodd" clip-rule="evenodd" d="M25.863 230.734c12.417-5.154 24.878-2.72 27.844 5.439 2.966 8.159-4.714 18.928-17.131 24.083-12.395 5.132-24.856 2.697-27.822-5.44-2.966-8.159 4.692-18.928 17.11-24.082z" fill="#E8F2FB"/></g></g><mask id="a" maskUnits="userSpaceOnUse" x="90" y="9" width="220" height="219"><path d="M310 9H90v219h220V9z" fill="url(#paint2_linear)"/></mask><g mask="url(#a)"><path fill-rule="evenodd" clip-rule="evenodd" d="M142.476 220.361a1.114 1.114 0 011.549.029 1.119 1.119 0 01-.03 1.552 1.113 1.113 0 01-1.549-.03c-.417-.447-.417-1.134.03-1.551zm2.71-2.567a1.113 1.113 0 011.549.03 1.119 1.119 0 01-.03 1.552 1.112 1.112 0 01-1.548-.03c-.417-.418-.417-1.164.029-1.552zm2.591-2.477a1.115 1.115 0 011.549.03 1.119 1.119 0 01-.03 1.552 1.112 1.112 0 01-1.548-.03c-.417-.447-.417-1.134.029-1.552zm2.77-2.655a1.114 1.114 0 011.549.029 1.119 1.119 0 01-.03 1.552 1.113 1.113 0 01-1.549-.03 1.118 1.118 0 01.03-1.551zm2.591-2.447a1.113 1.113 0 011.549.03 1.118 1.118 0 01-.03 1.551 1.113 1.113 0 01-1.549-.03c-.417-.447-.417-1.134.03-1.551zm2.71-2.567a1.114 1.114 0 011.549.03 1.119 1.119 0 01-.03 1.552 1.112 1.112 0 01-1.548-.03c-.417-.447-.417-1.164.029-1.552zm2.591-2.476a1.114 1.114 0 011.549.029 1.119 1.119 0 01-.03 1.552 1.112 1.112 0 01-1.548-.03c-.417-.447-.417-1.134.029-1.551zm2.711-2.596a1.113 1.113 0 011.548.029 1.119 1.119 0 01-.03 1.552 1.112 1.112 0 01-1.548-.03 1.118 1.118 0 01.03-1.551zm2.591-2.447a1.113 1.113 0 011.548.029 1.119 1.119 0 01-.03 1.552 1.112 1.112 0 01-1.548-.03 1.118 1.118 0 01.03-1.551zm2.71-2.597a1.114 1.114 0 011.548.03 1.119 1.119 0 01-.029 1.552 1.113 1.113 0 01-1.549-.03 1.119 1.119 0 01.03-1.552zm2.591-2.446a1.113 1.113 0 011.548.029 1.119 1.119 0 01-.029 1.552 1.113 1.113 0 01-1.549-.03c-.417-.447-.417-1.134.03-1.551zm2.77-2.656a1.112 1.112 0 011.548.03 1.118 1.118 0 01-.03 1.551 1.112 1.112 0 01-1.548-.03 1.118 1.118 0 01.03-1.551zm2.591-2.447a1.112 1.112 0 011.548.03 1.118 1.118 0 01-.03 1.551 1.113 1.113 0 01-1.548-.029 1.119 1.119 0 01.03-1.552zm2.71-2.596a1.112 1.112 0 011.548.03 1.118 1.118 0 01-.029 1.551 1.113 1.113 0 01-1.549-.03 1.118 1.118 0 01.03-1.551zm2.591-2.447a1.112 1.112 0 011.548.03 1.118 1.118 0 01-.029 1.551 1.113 1.113 0 01-1.549-.03c-.417-.447-.417-1.134.03-1.551zm2.799-2.656a1.113 1.113 0 011.549.03 1.118 1.118 0 01-.03 1.551 1.113 1.113 0 01-1.548-.029c-.417-.448-.417-1.134.029-1.552zm2.591-2.447a1.113 1.113 0 011.549.03 1.119 1.119 0 01-.03 1.552 1.114 1.114 0 01-1.548-.03c-.447-.448-.417-1.164.029-1.552zm2.711-2.596a1.112 1.112 0 011.548.03 1.118 1.118 0 01-.03 1.551 1.113 1.113 0 01-1.548-.029 1.066 1.066 0 01.03-1.552zm2.561-2.447a1.112 1.112 0 011.548.03 1.119 1.119 0 01-.029 1.552 1.115 1.115 0 01-1.549-.03 1.119 1.119 0 01.03-1.552zm2.799-2.656a1.113 1.113 0 011.549.03 1.119 1.119 0 01-.03 1.552 1.114 1.114 0 01-1.549-.03c-.416-.448-.416-1.134.03-1.552zm2.591-2.447a1.113 1.113 0 011.549.03 1.119 1.119 0 01-.03 1.552 1.112 1.112 0 01-1.548-.03 1.067 1.067 0 01.029-1.552zm2.71-2.596a1.113 1.113 0 011.549.03 1.119 1.119 0 01-.03 1.552 1.113 1.113 0 01-1.548-.03 1.067 1.067 0 01.029-1.552zm2.562-2.447a1.112 1.112 0 011.548.03 1.119 1.119 0 01-.029 1.552 1.114 1.114 0 01-1.549-.03 1.119 1.119 0 01.03-1.552zm2.74-2.596a1.112 1.112 0 011.548.03 1.119 1.119 0 01-.029 1.552 1.115 1.115 0 01-1.549-.03c-.417-.448-.417-1.134.03-1.552zm2.591-2.477a1.112 1.112 0 011.548.03 1.119 1.119 0 01-.029 1.552 1.113 1.113 0 01-1.549-.03c-.417-.448-.417-1.134.03-1.552zm2.71-2.566a1.113 1.113 0 011.549.03 1.12 1.12 0 01-.03 1.552 1.115 1.115 0 01-1.549-.03c-.417-.448-.417-1.134.03-1.552zm2.591-2.447a1.113 1.113 0 011.549.03 1.119 1.119 0 01-.03 1.552 1.114 1.114 0 01-1.549-.03 1.066 1.066 0 01.03-1.552zm2.77-2.656a1.112 1.112 0 011.548.03 1.12 1.12 0 01-.029 1.552 1.113 1.113 0 01-1.549-.03c-.417-.448-.417-1.134.03-1.552zm2.591-2.447a1.113 1.113 0 011.548.03 1.119 1.119 0 01-.029 1.552 1.113 1.113 0 01-1.549-.03c-.417-.477-.417-1.164.03-1.552zm2.71-2.596a1.113 1.113 0 011.549.03 1.12 1.12 0 01-.03 1.552 1.114 1.114 0 01-1.549-.03c-.417-.448-.417-1.134.03-1.552zm2.591-2.447a1.113 1.113 0 011.549.03 1.119 1.119 0 01-.03 1.552 1.113 1.113 0 01-1.549-.03c-.417-.448-.417-1.134.03-1.552zm2.77-2.626a1.112 1.112 0 011.548.03 1.12 1.12 0 01-.029 1.552 1.113 1.113 0 01-1.549-.03 1.066 1.066 0 01.03-1.552zm2.561-2.476a1.114 1.114 0 011.549.029 1.12 1.12 0 01-.03 1.552 1.113 1.113 0 01-1.549-.03 1.118 1.118 0 01.03-1.551zm2.71-2.567a1.113 1.113 0 011.549.03 1.119 1.119 0 01-.03 1.552 1.113 1.113 0 01-1.549-.03 1.119 1.119 0 01.03-1.552zm2.591-2.477a1.115 1.115 0 011.549.03 1.119 1.119 0 01-.03 1.552 1.113 1.113 0 01-1.549-.03 1.119 1.119 0 01.03-1.552zm2.8-2.626a1.114 1.114 0 011.548.03 1.119 1.119 0 01-.03 1.552 1.112 1.112 0 01-1.548-.03 1.066 1.066 0 01.03-1.552zm2.561-2.476a1.113 1.113 0 011.549.03 1.119 1.119 0 01-.03 1.551 1.113 1.113 0 01-1.549-.03 1.118 1.118 0 01.03-1.551zm2.71-2.567a1.114 1.114 0 011.549.03 1.119 1.119 0 01-.03 1.552 1.113 1.113 0 01-1.549-.03 1.119 1.119 0 01.03-1.552zm2.591-2.447a1.115 1.115 0 011.549.03 1.119 1.119 0 01-.03 1.552 1.113 1.113 0 01-1.549-.03c-.417-.477-.387-1.164.03-1.552zm2.74-2.596a1.114 1.114 0 011.549.03 1.119 1.119 0 01-.03 1.552 1.113 1.113 0 01-1.549-.03c-.417-.448-.417-1.164.03-1.552zm2.591-2.476a1.114 1.114 0 011.549.029 1.119 1.119 0 01-.03 1.552 1.113 1.113 0 01-1.549-.03 1.065 1.065 0 01.03-1.551zm2.71-2.567a1.114 1.114 0 011.549.03 1.119 1.119 0 01-.03 1.552 1.113 1.113 0 01-1.549-.03 1.067 1.067 0 01.03-1.552zm2.561-2.476a1.114 1.114 0 011.549.029 1.119 1.119 0 01-.03 1.552 1.112 1.112 0 01-1.548-.03 1.119 1.119 0 01.029-1.551zm2.8-2.626a1.114 1.114 0 011.549.029 1.119 1.119 0 01-.03 1.552 1.113 1.113 0 01-1.549-.03c-.417-.447-.417-1.134.03-1.551zm2.591-2.477a1.113 1.113 0 011.549.03 1.118 1.118 0 01-.03 1.551 1.114 1.114 0 01-1.549-.029c-.417-.448-.417-1.134.03-1.552zm2.71-2.566a1.114 1.114 0 011.549.029 1.119 1.119 0 01-.03 1.552 1.113 1.113 0 01-1.549-.03 1.065 1.065 0 01.03-1.551zm2.591-2.477a1.113 1.113 0 011.549.03 1.118 1.118 0 01-.03 1.551 1.113 1.113 0 01-1.549-.03 1.065 1.065 0 01.03-1.551zm2.77-2.626a1.113 1.113 0 011.549.03 1.118 1.118 0 01-.03 1.551 1.113 1.113 0 01-1.549-.03c-.417-.477-.387-1.163.03-1.551zm2.591-2.477a1.114 1.114 0 011.549.03 1.12 1.12 0 01-.03 1.552 1.115 1.115 0 01-1.549-.03c-.417-.448-.417-1.134.03-1.552zm2.71-2.566a1.114 1.114 0 011.549.03 1.119 1.119 0 01-.03 1.551 1.114 1.114 0 01-1.549-.03c-.417-.447-.417-1.134.03-1.551zm2.591-2.477a1.114 1.114 0 011.549.03 1.119 1.119 0 01-.03 1.552 1.114 1.114 0 01-1.549-.03c-.417-.448-.417-1.134.03-1.552zm2.77-2.626a1.114 1.114 0 011.549.03 1.119 1.119 0 01-.03 1.552 1.114 1.114 0 01-1.549-.03c-.417-.448-.387-1.164.03-1.552zm2.591-2.477a1.114 1.114 0 011.549.03 1.119 1.119 0 01-.03 1.552 1.114 1.114 0 01-1.549-.03 1.119 1.119 0 01.03-1.552zm2.71-2.566a1.114 1.114 0 011.549.03 1.119 1.119 0 01-.03 1.551 1.114 1.114 0 01-1.549-.03c-.417-.447-.417-1.133.03-1.551zm2.591-2.477a1.114 1.114 0 011.549.03 1.119 1.119 0 01-.03 1.552 1.114 1.114 0 01-1.549-.03c-.417-.448-.417-1.134.03-1.552zm2.71-2.596a1.114 1.114 0 011.549.03 1.119 1.119 0 01-.03 1.552 1.113 1.113 0 01-1.548-.03 1.119 1.119 0 01.029-1.552zm2.591-2.447a1.114 1.114 0 011.549.03 1.119 1.119 0 01-.03 1.552 1.113 1.113 0 01-1.548-.03 1.119 1.119 0 01.029-1.552zm2.711-2.566a1.113 1.113 0 011.548.03 1.119 1.119 0 01-.03 1.551 1.113 1.113 0 01-1.548-.03c-.417-.447-.387-1.163.03-1.551zm2.591-2.477a1.113 1.113 0 011.548.03 1.119 1.119 0 01-.03 1.552 1.113 1.113 0 01-1.548-.03 1.119 1.119 0 01.03-1.552zm2.799-2.656a1.114 1.114 0 011.549.03 1.119 1.119 0 01-.03 1.552 1.114 1.114 0 01-1.549-.03 1.066 1.066 0 01.03-1.552zm2.561-2.447a1.114 1.114 0 011.549.03 1.119 1.119 0 01-.03 1.552 1.113 1.113 0 01-1.548-.03 1.119 1.119 0 01.029-1.552zm2.71-2.566a1.114 1.114 0 011.549.03 1.119 1.119 0 01-.03 1.552 1.113 1.113 0 01-1.548-.03 1.12 1.12 0 01.029-1.552zm2.592-2.477a1.113 1.113 0 011.548.03 1.119 1.119 0 01-.03 1.552 1.113 1.113 0 01-1.548-.03 1.119 1.119 0 01.03-1.552zM140.54 226.12a1.113 1.113 0 011.549.03 1.118 1.118 0 01-.03 1.551 1.112 1.112 0 01-1.548-.03 1.118 1.118 0 01.029-1.551zm2.591-2.477a1.113 1.113 0 011.549.03 1.119 1.119 0 01-.03 1.552 1.114 1.114 0 01-1.548-.03 1.119 1.119 0 01.029-1.552zm2.711-2.566a1.112 1.112 0 011.548.03 1.118 1.118 0 01-.03 1.551 1.112 1.112 0 01-1.548-.03 1.118 1.118 0 01.03-1.551zm2.591-2.447a1.112 1.112 0 011.548.03 1.119 1.119 0 01-.029 1.551 1.113 1.113 0 01-1.549-.03 1.118 1.118 0 01.03-1.551zm2.799-2.656a1.113 1.113 0 011.549.03 1.118 1.118 0 01-.03 1.551 1.114 1.114 0 01-1.549-.029 1.067 1.067 0 01.03-1.552zm2.561-2.447a1.113 1.113 0 011.549.03 1.119 1.119 0 01-.03 1.552 1.114 1.114 0 01-1.548-.03c-.417-.418-.388-1.164.029-1.552zm2.711-2.596a1.112 1.112 0 011.548.03 1.118 1.118 0 01-.03 1.551 1.113 1.113 0 01-1.548-.029 1.119 1.119 0 01.03-1.552zm2.591-2.447a1.112 1.112 0 011.548.03 1.118 1.118 0 01-.03 1.551 1.113 1.113 0 01-1.548-.029c-.417-.418-.387-1.134.03-1.552zm2.74-2.596a1.112 1.112 0 011.548.03 1.118 1.118 0 01-.03 1.551 1.113 1.113 0 01-1.548-.029c-.417-.448-.417-1.134.03-1.552zm2.591-2.477a1.112 1.112 0 011.548.03 1.119 1.119 0 01-.03 1.552 1.113 1.113 0 01-1.548-.03 1.066 1.066 0 01.03-1.552zm2.71-2.566a1.112 1.112 0 011.548.03 1.118 1.118 0 01-.029 1.551 1.113 1.113 0 01-1.549-.03 1.065 1.065 0 01.03-1.551zm2.561-2.447a1.113 1.113 0 011.549.03 1.118 1.118 0 01-.03 1.551 1.114 1.114 0 01-1.549-.029c-.417-.448-.387-1.164.03-1.552zm2.8-2.656a1.112 1.112 0 011.548.03 1.119 1.119 0 01-.03 1.552 1.113 1.113 0 01-1.548-.03c-.417-.448-.417-1.134.03-1.552zm2.591-2.477a1.112 1.112 0 011.548.03 1.119 1.119 0 01-.03 1.552 1.112 1.112 0 01-1.548-.03 1.066 1.066 0 01.03-1.552zm2.71-2.566a1.112 1.112 0 011.548.03 1.119 1.119 0 01-.029 1.552 1.115 1.115 0 01-1.549-.03 1.066 1.066 0 01.03-1.552zm2.561-2.447a1.113 1.113 0 011.549.03 1.119 1.119 0 01-.03 1.552 1.114 1.114 0 01-1.549-.03 1.119 1.119 0 01.03-1.552zm2.799-2.656a1.113 1.113 0 011.549.03 1.119 1.119 0 01-.03 1.552 1.112 1.112 0 01-1.548-.03 1.12 1.12 0 01.029-1.552zm2.592-2.477a1.114 1.114 0 011.548.03 1.119 1.119 0 01-.03 1.552 1.112 1.112 0 01-1.548-.03c-.417-.447-.417-1.134.03-1.552zm2.71-2.566a1.112 1.112 0 011.548.03 1.119 1.119 0 01-.029 1.552 1.114 1.114 0 01-1.549-.03c-.417-.448-.417-1.134.03-1.552zm2.591-2.447a1.112 1.112 0 011.548.03 1.119 1.119 0 01-.029 1.552 1.113 1.113 0 01-1.549-.03c-.417-.477-.417-1.164.03-1.552zm2.769-2.656a1.115 1.115 0 011.549.03 1.119 1.119 0 01-.03 1.552 1.112 1.112 0 01-1.548-.03 1.12 1.12 0 01.029-1.552zm2.592-2.476a1.113 1.113 0 011.548.029 1.119 1.119 0 01-.03 1.552 1.112 1.112 0 01-1.548-.03c-.417-.447-.417-1.134.03-1.551zm2.71-2.567a1.113 1.113 0 011.548.03 1.119 1.119 0 01-.029 1.552 1.113 1.113 0 01-1.549-.03c-.417-.448-.417-1.134.03-1.552zm2.591-2.447a1.114 1.114 0 011.548.03 1.119 1.119 0 01-.029 1.552 1.113 1.113 0 01-1.549-.03c-.417-.447-.417-1.164.03-1.552zm2.71-2.596a1.114 1.114 0 011.549.03 1.119 1.119 0 01-.03 1.552 1.113 1.113 0 01-1.549-.03 1.119 1.119 0 01.03-1.552zm2.591-2.476a1.114 1.114 0 011.549.029 1.119 1.119 0 01-.03 1.552 1.113 1.113 0 01-1.549-.03 1.118 1.118 0 01.03-1.551zm2.71-2.567a1.114 1.114 0 011.549.03 1.119 1.119 0 01-.03 1.552 1.113 1.113 0 01-1.549-.03 1.119 1.119 0 01.03-1.552zm2.591-2.477a1.115 1.115 0 011.549.03 1.119 1.119 0 01-.03 1.552 1.113 1.113 0 01-1.549-.03c-.417-.447-.417-1.134.03-1.552zm2.77-2.625a1.114 1.114 0 011.549.029 1.12 1.12 0 01-.03 1.552 1.113 1.113 0 01-1.549-.03 1.118 1.118 0 01.03-1.551zm2.591-2.477a1.113 1.113 0 011.549.03 1.118 1.118 0 01-.03 1.551 1.113 1.113 0 01-1.549-.03 1.118 1.118 0 01.03-1.551zm2.71-2.567a1.115 1.115 0 011.549.03 1.119 1.119 0 01-.03 1.552 1.113 1.113 0 01-1.549-.03 1.119 1.119 0 01.03-1.552zm2.591-2.476a1.113 1.113 0 011.549.03 1.118 1.118 0 01-.03 1.551 1.113 1.113 0 01-1.549-.03 1.118 1.118 0 01.03-1.551zm2.77-2.626a1.112 1.112 0 011.548.03 1.118 1.118 0 01-.029 1.551 1.113 1.113 0 01-1.549-.03c-.417-.447-.417-1.133.03-1.551zm2.591-2.447a1.113 1.113 0 011.549.03c.416.417.387 1.134-.03 1.551a1.114 1.114 0 01-1.549-.029c-.417-.448-.417-1.134.03-1.552zm2.71-2.566a1.114 1.114 0 011.549.029 1.119 1.119 0 01-.03 1.552 1.113 1.113 0 01-1.549-.03c-.446-.447-.417-1.164.03-1.551zm2.591-2.477a1.113 1.113 0 011.549.03 1.118 1.118 0 01-.03 1.551 1.113 1.113 0 01-1.549-.03 1.065 1.065 0 01.03-1.551zm2.77-2.656a1.112 1.112 0 011.548.03 1.118 1.118 0 01-.029 1.551 1.114 1.114 0 01-1.549-.029c-.417-.448-.417-1.134.03-1.552zM239 132.48a1.113 1.113 0 011.549.03 1.12 1.12 0 01-.03 1.552 1.115 1.115 0 01-1.549-.03c-.417-.448-.417-1.134.03-1.552zm2.71-2.566a1.113 1.113 0 011.549.03 1.118 1.118 0 01-.03 1.551 1.113 1.113 0 01-1.549-.03c-.417-.447-.417-1.134.03-1.551zm2.591-2.477a1.113 1.113 0 011.549.03 1.119 1.119 0 01-.03 1.552 1.115 1.115 0 01-1.549-.03 1.067 1.067 0 01.03-1.552zm2.71-2.596a1.113 1.113 0 011.549.03 1.118 1.118 0 01-.03 1.551 1.114 1.114 0 01-1.549-.029 1.119 1.119 0 01.03-1.552zm2.591-2.447a1.113 1.113 0 011.549.03 1.118 1.118 0 01-.03 1.551 1.114 1.114 0 01-1.549-.029c-.416-.448-.416-1.134.03-1.552zm2.71-2.566a1.114 1.114 0 011.549.029 1.119 1.119 0 01-.03 1.552 1.112 1.112 0 01-1.548-.03c-.417-.477-.417-1.163.029-1.551zm2.591-2.477a1.113 1.113 0 011.549.03 1.118 1.118 0 01-.03 1.551 1.113 1.113 0 01-1.548-.029c-.417-.448-.417-1.134.029-1.552zm2.77-2.656a1.113 1.113 0 011.549.03 1.119 1.119 0 01-.03 1.552 1.114 1.114 0 01-1.549-.03 1.119 1.119 0 01.03-1.552zm2.591-2.447a1.113 1.113 0 011.549.03 1.119 1.119 0 01-.03 1.552 1.114 1.114 0 01-1.549-.03 1.119 1.119 0 01.03-1.552zm2.71-2.566a1.113 1.113 0 011.549.03 1.118 1.118 0 01-.03 1.551 1.113 1.113 0 01-1.548-.029c-.417-.448-.417-1.164.029-1.552zm2.591-2.477a1.113 1.113 0 011.549.03 1.119 1.119 0 01-.03 1.552 1.113 1.113 0 01-1.548-.03c-.417-.448-.417-1.134.029-1.552zm2.8-2.656a1.113 1.113 0 011.549.03 1.119 1.119 0 01-.03 1.552 1.113 1.113 0 01-1.549-.03 1.066 1.066 0 01.03-1.552zm2.561-2.447a1.114 1.114 0 011.549.03 1.119 1.119 0 01-.03 1.552 1.113 1.113 0 01-1.549-.03 1.119 1.119 0 01.03-1.552zm2.71-2.596a1.114 1.114 0 011.549.03 1.119 1.119 0 01-.03 1.552 1.113 1.113 0 01-1.548-.03 1.119 1.119 0 01.029-1.552zm2.591-2.447a1.114 1.114 0 011.549.03 1.119 1.119 0 01-.03 1.552 1.113 1.113 0 01-1.548-.03 1.119 1.119 0 01.029-1.552zm2.8-2.656a1.114 1.114 0 011.549.03 1.119 1.119 0 01-.03 1.552 1.114 1.114 0 01-1.549-.03 1.065 1.065 0 01.03-1.552zm2.591-2.447a1.114 1.114 0 011.549.03 1.119 1.119 0 01-.03 1.552 1.114 1.114 0 01-1.549-.03 1.065 1.065 0 01.03-1.551zm2.68-2.596a1.114 1.114 0 011.549.03 1.119 1.119 0 01-.03 1.552 1.112 1.112 0 01-1.548-.03 1.119 1.119 0 01.029-1.552zm2.591-2.447a1.114 1.114 0 011.549.03 1.119 1.119 0 01-.03 1.552 1.113 1.113 0 01-1.548-.03 1.119 1.119 0 01.029-1.552zm2.74-2.596a1.114 1.114 0 011.549.03 1.119 1.119 0 01-.03 1.552 1.113 1.113 0 01-1.548-.03c-.417-.448-.417-1.134.029-1.552zm2.591-2.447a1.114 1.114 0 011.549.03 1.119 1.119 0 01-.03 1.552 1.113 1.113 0 01-1.548-.03c-.417-.447-.417-1.164.029-1.552zm2.711-2.596a1.113 1.113 0 011.548.03 1.119 1.119 0 01-.03 1.552 1.113 1.113 0 01-1.548-.03 1.065 1.065 0 01.03-1.552zm2.591-2.447a1.113 1.113 0 011.548.03 1.119 1.119 0 01-.03 1.552 1.113 1.113 0 01-1.548-.03 1.065 1.065 0 01.03-1.552zm2.769-2.656a1.114 1.114 0 011.549.03 1.119 1.119 0 01-.03 1.552 1.113 1.113 0 01-1.548-.03c-.417-.447-.417-1.134.029-1.552zm2.591-2.446a1.114 1.114 0 011.549.03 1.119 1.119 0 01-.03 1.551 1.112 1.112 0 01-1.548-.03c-.417-.447-.417-1.134.029-1.551zm2.71-2.596a1.114 1.114 0 011.549.03 1.119 1.119 0 01-.03 1.551 1.113 1.113 0 01-1.548-.03c-.417-.447-.417-1.134.029-1.552zm2.592-2.448a1.113 1.113 0 011.548.03 1.119 1.119 0 01-.03 1.552 1.113 1.113 0 01-1.548-.03 1.065 1.065 0 01.03-1.552zM136.639 221.972a1.113 1.113 0 011.549.03 1.118 1.118 0 01-.03 1.551 1.114 1.114 0 01-1.549-.029c-.417-.448-.417-1.134.03-1.552zm2.591-2.447a1.113 1.113 0 011.549.03 1.119 1.119 0 01-.03 1.552 1.115 1.115 0 01-1.549-.03c-.417-.448-.417-1.134.03-1.552zm2.71-2.566a1.113 1.113 0 011.549.03 1.118 1.118 0 01-.03 1.551 1.113 1.113 0 01-1.549-.03c-.417-.447-.417-1.134.03-1.551zm2.591-2.477a1.113 1.113 0 011.549.03 1.118 1.118 0 01-.03 1.551 1.114 1.114 0 01-1.549-.029 1.067 1.067 0 01.03-1.552zm2.77-2.626a1.113 1.113 0 011.549.03 1.118 1.118 0 01-.03 1.551 1.114 1.114 0 01-1.549-.029c-.417-.478-.417-1.164.03-1.552zm2.591-2.477a1.113 1.113 0 011.549.03 1.119 1.119 0 01-.03 1.552 1.114 1.114 0 01-1.549-.03c-.417-.448-.417-1.134.03-1.552zm2.71-2.566a1.113 1.113 0 011.549.03 1.118 1.118 0 01-.03 1.551 1.114 1.114 0 01-1.549-.029c-.417-.448-.417-1.134.03-1.552zm2.591-2.477a1.113 1.113 0 011.549.03 1.119 1.119 0 01-.03 1.552 1.114 1.114 0 01-1.549-.03 1.067 1.067 0 01.03-1.552zm2.71-2.596a1.113 1.113 0 011.549.03 1.119 1.119 0 01-.03 1.552 1.114 1.114 0 01-1.548-.03 1.119 1.119 0 01.029-1.552zm2.591-2.447a1.113 1.113 0 011.549.03 1.119 1.119 0 01-.03 1.552 1.113 1.113 0 01-1.548-.03 1.119 1.119 0 01.029-1.552zm2.711-2.566a1.112 1.112 0 011.548.03 1.118 1.118 0 01-.03 1.551 1.112 1.112 0 01-1.548-.03c-.417-.447-.417-1.163.03-1.551zm2.591-2.477a1.112 1.112 0 011.548.03 1.119 1.119 0 01-.03 1.552 1.114 1.114 0 01-1.548-.03c-.417-.448-.417-1.134.03-1.552zm2.769-2.656a1.113 1.113 0 011.549.03 1.119 1.119 0 01-.03 1.552 1.112 1.112 0 01-1.548-.03 1.119 1.119 0 01.029-1.552zm2.591-2.447a1.113 1.113 0 011.549.03 1.119 1.119 0 01-.03 1.552 1.112 1.112 0 01-1.548-.03 1.119 1.119 0 01.029-1.552zm2.711-2.566a1.112 1.112 0 011.548.03 1.119 1.119 0 01-.03 1.552 1.114 1.114 0 01-1.548-.03 1.119 1.119 0 01.03-1.552zm2.591-2.477a1.112 1.112 0 011.548.03 1.119 1.119 0 01-.03 1.552 1.112 1.112 0 01-1.548-.03c-.417-.448-.417-1.134.03-1.552zm2.799-2.656a1.114 1.114 0 011.549.03 1.119 1.119 0 01-.03 1.552 1.113 1.113 0 01-1.549-.03 1.067 1.067 0 01.03-1.552zm2.591-2.447a1.115 1.115 0 011.549.03 1.119 1.119 0 01-.03 1.552 1.113 1.113 0 01-1.549-.03 1.067 1.067 0 01.03-1.552zm2.68-2.596a1.114 1.114 0 011.549.03 1.119 1.119 0 01-.03 1.552 1.112 1.112 0 01-1.548-.03 1.12 1.12 0 01.029-1.552zm2.592-2.447a1.113 1.113 0 011.548.03 1.119 1.119 0 01-.03 1.552 1.112 1.112 0 01-1.548-.03 1.119 1.119 0 01.03-1.552zm2.799-2.655a1.114 1.114 0 011.549.029 1.119 1.119 0 01-.03 1.552 1.113 1.113 0 01-1.549-.03c-.417-.447-.417-1.134.03-1.551zm2.591-2.447a1.114 1.114 0 011.549.029 1.119 1.119 0 01-.03 1.552 1.113 1.113 0 01-1.549-.03 1.065 1.065 0 01.03-1.551zm2.68-2.567a1.114 1.114 0 011.549.03 1.119 1.119 0 01-.03 1.552 1.112 1.112 0 01-1.548-.03c-.417-.477-.387-1.164.029-1.552zm2.591-2.476a1.114 1.114 0 011.549.029 1.119 1.119 0 01-.03 1.552 1.112 1.112 0 01-1.548-.03 1.119 1.119 0 01.029-1.551zm2.74-2.597a1.115 1.115 0 011.549.03 1.119 1.119 0 01-.03 1.552 1.112 1.112 0 01-1.548-.03c-.417-.447-.417-1.134.029-1.552zm2.591-2.446a1.114 1.114 0 011.549.029 1.119 1.119 0 01-.03 1.552 1.112 1.112 0 01-1.548-.03c-.417-.447-.417-1.134.029-1.551zm2.711-2.597a1.113 1.113 0 011.548.03 1.12 1.12 0 01-.029 1.552 1.113 1.113 0 01-1.549-.03c-.417-.447-.417-1.134.03-1.552zm2.591-2.446a1.113 1.113 0 011.548.029 1.119 1.119 0 01-.029 1.552 1.113 1.113 0 01-1.549-.03 1.065 1.065 0 01.03-1.551zm2.769-2.656a1.113 1.113 0 011.549.03 1.118 1.118 0 01-.03 1.551 1.112 1.112 0 01-1.548-.03c-.417-.447-.417-1.134.029-1.551zm2.591-2.447a1.113 1.113 0 011.549.03 1.118 1.118 0 01-.03 1.551 1.112 1.112 0 01-1.548-.03c-.417-.447-.417-1.133.029-1.551zm2.711-2.596a1.113 1.113 0 011.548.029 1.119 1.119 0 01-.03 1.552 1.112 1.112 0 01-1.548-.03c-.417-.447-.417-1.134.03-1.551zm2.591-2.447a1.112 1.112 0 011.548.03 1.119 1.119 0 01-.029 1.551 1.113 1.113 0 01-1.549-.03 1.065 1.065 0 01.03-1.551zm2.74-2.626a1.112 1.112 0 011.548.03 1.118 1.118 0 01-.03 1.551 1.112 1.112 0 01-1.548-.03 1.118 1.118 0 01.03-1.551zm2.591-2.477a1.112 1.112 0 011.548.03 1.12 1.12 0 01-.029 1.552 1.115 1.115 0 01-1.549-.03 1.119 1.119 0 01.03-1.552zm2.71-2.566a1.112 1.112 0 011.548.03 1.118 1.118 0 01-.029 1.551 1.113 1.113 0 01-1.549-.03 1.118 1.118 0 01.03-1.551zm2.591-2.447a1.113 1.113 0 011.549.03 1.119 1.119 0 01-.03 1.551 1.113 1.113 0 01-1.549-.03c-.417-.447-.417-1.133.03-1.551zm2.77-2.656a1.112 1.112 0 011.548.03 1.118 1.118 0 01-.03 1.551 1.113 1.113 0 01-1.548-.029 1.119 1.119 0 01.03-1.552zm2.591-2.477a1.112 1.112 0 011.548.03 1.12 1.12 0 01-.029 1.552 1.114 1.114 0 01-1.549-.03 1.119 1.119 0 01.03-1.552zm2.71-2.566a1.112 1.112 0 011.548.03 1.118 1.118 0 01-.029 1.551 1.114 1.114 0 01-1.549-.029 1.119 1.119 0 01.03-1.552zm2.591-2.447a1.112 1.112 0 011.548.03 1.119 1.119 0 01-.029 1.552 1.115 1.115 0 01-1.549-.03 1.119 1.119 0 01.03-1.552zm2.74-2.596a1.112 1.112 0 011.548.03 1.118 1.118 0 01-.029 1.551 1.114 1.114 0 01-1.549-.029c-.417-.448-.417-1.134.03-1.552zm2.591-2.477a1.112 1.112 0 011.548.03 1.119 1.119 0 01-.029 1.552 1.114 1.114 0 01-1.549-.03 1.066 1.066 0 01.03-1.552zm2.68-2.566a1.113 1.113 0 011.549.03 1.118 1.118 0 01-.03 1.551 1.113 1.113 0 01-1.549-.03 1.118 1.118 0 01.03-1.551zm2.591-2.447a1.113 1.113 0 011.549.03 1.118 1.118 0 01-.03 1.551 1.114 1.114 0 01-1.549-.029c-.417-.478-.387-1.164.03-1.552zm2.8-2.656a1.112 1.112 0 011.548.03 1.119 1.119 0 01-.029 1.552 1.114 1.114 0 01-1.549-.03c-.417-.448-.417-1.134.03-1.552zm2.591-2.477a1.112 1.112 0 011.548.03 1.119 1.119 0 01-.029 1.552 1.113 1.113 0 01-1.549-.03 1.066 1.066 0 01.03-1.552zm2.71-2.566a1.113 1.113 0 011.549.03 1.119 1.119 0 01-.03 1.552 1.115 1.115 0 01-1.549-.03 1.066 1.066 0 01.03-1.552zm2.561-2.447a1.113 1.113 0 011.549.03 1.119 1.119 0 01-.03 1.552 1.114 1.114 0 01-1.549-.03c-.417-.448-.387-1.164.03-1.552zm2.8-2.656a1.112 1.112 0 011.548.03 1.119 1.119 0 01-.029 1.552 1.113 1.113 0 01-1.549-.03c-.417-.448-.417-1.134.03-1.552zm2.591-2.477a1.113 1.113 0 011.548.03 1.119 1.119 0 01-.029 1.552 1.114 1.114 0 01-1.549-.03c-.417-.447-.417-1.134.03-1.552zm2.71-2.566a1.114 1.114 0 011.549.03 1.119 1.119 0 01-.03 1.552 1.114 1.114 0 01-1.549-.03c-.417-.448-.417-1.134.03-1.552zm2.591-2.477a1.114 1.114 0 011.549.03 1.119 1.119 0 01-.03 1.552 1.114 1.114 0 01-1.549-.03c-.417-.447-.417-1.134.03-1.552zm2.77-2.626a1.113 1.113 0 011.548.03 1.119 1.119 0 01-.029 1.552 1.114 1.114 0 01-1.549-.03 1.119 1.119 0 01.03-1.552zm2.591-2.476a1.113 1.113 0 011.548.03 1.119 1.119 0 01-.029 1.551 1.114 1.114 0 01-1.549-.03c-.417-.447-.417-1.134.03-1.551zm2.71-2.567a1.114 1.114 0 011.549.03 1.12 1.12 0 01-.03 1.552 1.114 1.114 0 01-1.549-.03c-.417-.447-.417-1.134.03-1.552zm2.591-2.447a1.114 1.114 0 011.549.03 1.119 1.119 0 01-.03 1.552 1.114 1.114 0 01-1.549-.03c-.417-.477-.417-1.164.03-1.551zm2.71-2.596a1.114 1.114 0 011.549.03 1.119 1.119 0 01-.03 1.552 1.114 1.114 0 01-1.549-.03c-.417-.448-.387-1.164.03-1.552zm2.591-2.476a1.114 1.114 0 011.549.03 1.119 1.119 0 01-.03 1.551 1.114 1.114 0 01-1.549-.03 1.119 1.119 0 01.03-1.551zm2.71-2.567a1.114 1.114 0 011.549.03 1.119 1.119 0 01-.03 1.552 1.113 1.113 0 01-1.548-.03 1.119 1.119 0 01.029-1.552zm2.591-2.477a1.114 1.114 0 011.549.03 1.119 1.119 0 01-.03 1.552 1.112 1.112 0 01-1.548-.03c-.417-.447-.417-1.134.029-1.551zm2.77-2.626a1.114 1.114 0 011.549.03 1.119 1.119 0 01-.03 1.552 1.114 1.114 0 01-1.549-.03c-.417-.447-.387-1.163.03-1.552zm2.591-2.476a1.114 1.114 0 011.549.03 1.119 1.119 0 01-.03 1.551 1.114 1.114 0 01-1.549-.03 1.119 1.119 0 01.03-1.551zm2.71-2.567a1.114 1.114 0 011.549.03 1.119 1.119 0 01-.03 1.552 1.114 1.114 0 01-1.549-.03 1.12 1.12 0 01.03-1.552zm2.591-2.476a1.114 1.114 0 011.549.03 1.119 1.119 0 01-.03 1.551 1.112 1.112 0 01-1.548-.03 1.119 1.119 0 01.029-1.551zM97.327 196.757c.506-.478 1.34-.478 1.816.059.477.508.477 1.343-.06 1.821-.505.477-1.34.477-1.816-.06-.476-.507-.447-1.313.06-1.82zm3.216-3.044c.506-.478 1.34-.478 1.817.06.476.507.476 1.342-.06 1.82-.506.477-1.34.477-1.816-.06a1.308 1.308 0 01.059-1.82zm3.068-2.925c.506-.477 1.34-.477 1.816.06.477.507.477 1.343-.059 1.82-.507.478-1.34.478-1.817-.059-.476-.508-.447-1.313.06-1.821zm3.305-3.133c.507-.477 1.341-.477 1.817.06.477.507.477 1.343-.059 1.82-.507.478-1.341.478-1.817-.06-.477-.507-.447-1.342.059-1.82zm3.068-2.924c.506-.478 1.34-.478 1.817.06.476.507.476 1.342-.06 1.82-.506.477-1.34.477-1.817-.06a1.31 1.31 0 01.06-1.82zm3.216-3.074c.507-.477 1.341-.477 1.817.06.477.507.477 1.343-.059 1.82-.507.478-1.341.478-1.817-.059-.477-.508-.447-1.313.059-1.821zm3.098-2.924c.506-.478 1.34-.478 1.817.06.476.507.476 1.342-.06 1.82-.506.477-1.34.477-1.817-.06a1.282 1.282 0 01.06-1.82zm3.216-3.074c.507-.477 1.34-.477 1.817.06.476.507.476 1.343-.06 1.82-.506.478-1.34.478-1.816-.059-.477-.508-.447-1.313.059-1.821zm3.098-2.924c.506-.478 1.34-.478 1.816.06.477.507.477 1.342-.059 1.82-.507.477-1.34.477-1.817-.06-.506-.507-.476-1.313.06-1.82zm3.186-3.044c.507-.477 1.34-.477 1.817.06.476.507.476 1.343-.06 1.82-.506.478-1.34.478-1.816-.06-.477-.507-.447-1.342.059-1.82zm3.098-2.924c.506-.478 1.34-.478 1.816.06.477.507.477 1.342-.059 1.82-.507.477-1.34.477-1.817-.06-.476-.507-.476-1.343.06-1.82zm3.305-3.163c.507-.478 1.341-.478 1.817.059.477.508.477 1.343-.059 1.821-.507.477-1.341.477-1.817-.06a1.281 1.281 0 01.059-1.82zm3.068-2.925c.506-.477 1.34-.477 1.817.06.476.507.476 1.343-.06 1.82-.506.478-1.34.478-1.817-.059a1.284 1.284 0 01.06-1.821zm3.216-3.043c.507-.478 1.341-.478 1.817.059.477.508.477 1.343-.059 1.821-.507.477-1.341.477-1.817-.06-.477-.507-.477-1.343.059-1.82zm3.068-2.925c.506-.477 1.34-.477 1.817.06.476.507.476 1.343-.06 1.82-.506.478-1.34.478-1.817-.059a1.31 1.31 0 01.06-1.821zm3.306-3.163c.506-.477 1.34-.477 1.816.06.477.507.477 1.343-.059 1.82-.506.478-1.34.478-1.817-.06-.476-.507-.447-1.313.06-1.82zm3.067-2.924c.507-.478 1.341-.478 1.817.059.477.508.477 1.343-.06 1.821-.506.477-1.34.477-1.816-.06-.477-.507-.447-1.313.059-1.82zm3.217-3.044c.506-.477 1.34-.477 1.816.06.477.507.477 1.343-.059 1.82-.506.477-1.34.477-1.817-.06a1.31 1.31 0 01.06-1.82zm3.067-2.924c.507-.478 1.341-.478 1.817.059.477.508.477 1.343-.06 1.821-.506.477-1.34.477-1.816-.06a1.308 1.308 0 01.059-1.82zm3.306-3.134c.506-.477 1.34-.477 1.817.06.476.507.476 1.343-.06 1.82-.506.478-1.34.478-1.816-.059a1.31 1.31 0 01.059-1.821zm3.097-2.924c.507-.477 1.341-.477 1.817.06.477.507.477 1.343-.059 1.82-.507.477-1.341.477-1.817-.06-.477-.507-.477-1.343.059-1.82zm3.217-3.074c.506-.477 1.34-.477 1.817.06.476.507.476 1.343-.06 1.82-.506.478-1.34.478-1.817-.059-.506-.508-.476-1.313.06-1.821zm3.068-2.924c.506-.477 1.34-.477 1.816.06.477.507.477 1.343-.059 1.82-.507.477-1.341.477-1.817-.06a1.28 1.28 0 01.06-1.82zm3.216-3.074c.506-.477 1.34-.477 1.817.06.476.507.476 1.343-.06 1.82-.506.478-1.34.478-1.817-.059-.476-.508-.446-1.313.06-1.821zm3.097-2.924c.507-.477 1.34-.477 1.817.06.477.507.477 1.343-.06 1.82-.506.478-1.34.478-1.816-.06a1.281 1.281 0 01.059-1.82zm3.217-3.044c.506-.477 1.34-.477 1.816.06.477.507.477 1.343-.059 1.82-.506.478-1.34.478-1.817-.059-.476-.508-.476-1.343.06-1.821zm3.067-2.924c.507-.477 1.341-.477 1.817.06.477.507.477 1.342-.06 1.82-.506.477-1.34.477-1.816-.06-.477-.507-.477-1.343.059-1.82zm3.306-3.163c.506-.478 1.34-.478 1.817.06.476.507.476 1.342-.06 1.82-.506.477-1.34.477-1.816-.06a1.281 1.281 0 01.059-1.82zm3.068-2.924c.506-.478 1.34-.478 1.816.059.477.507.477 1.343-.059 1.82-.506.478-1.34.478-1.817-.059-.476-.508-.447-1.313.06-1.82zm3.216-3.044c.506-.478 1.34-.478 1.817.059.476.508.476 1.343-.06 1.821-.506.477-1.34.477-1.816-.06-.477-.507-.477-1.343.059-1.82zm3.068-2.925c.506-.477 1.34-.477 1.816.06.477.507.477 1.343-.059 1.82-.506.478-1.34.478-1.817-.059a1.31 1.31 0 01.06-1.821zm3.276-3.133c.506-.477 1.34-.477 1.816.06.477.507.477 1.343-.059 1.82-.506.478-1.34.478-1.817-.06-.476-.507-.447-1.313.06-1.82zm3.067-2.924c.507-.478 1.34-.478 1.817.059.476.508.476 1.343-.06 1.821-.506.477-1.34.477-1.816-.06-.477-.507-.447-1.313.059-1.82zm3.217-3.044c.506-.477 1.34-.477 1.816.06.477.507.477 1.342-.059 1.82-.506.477-1.34.477-1.817-.06a1.309 1.309 0 01.06-1.82zm3.067-2.924c.507-.478 1.34-.478 1.817.06.476.507.476 1.342-.06 1.82-.506.477-1.34.477-1.816-.06a1.309 1.309 0 01.059-1.82zm3.306-3.134c.506-.477 1.34-.477 1.817.06.476.507.476 1.343-.06 1.82-.506.478-1.34.478-1.816-.06a1.309 1.309 0 01.059-1.82zm3.097-2.924c.507-.478 1.341-.477 1.817.06.477.507.477 1.342-.059 1.82-.507.477-1.341.477-1.817-.06-.477-.507-.477-1.343.059-1.82zm3.217-3.074c.506-.477 1.34-.477 1.817.06.476.507.476 1.343-.06 1.82-.506.478-1.34.478-1.817-.06-.506-.507-.476-1.312.06-1.82zm3.067-2.924c.507-.477 1.341-.477 1.817.06.477.507.477 1.343-.059 1.82-.507.478-1.341.477-1.817-.06a1.282 1.282 0 01.059-1.82zm3.217-3.073c.506-.478 1.34-.478 1.817.06.476.506.476 1.342-.06 1.82-.506.477-1.34.477-1.817-.06-.476-.507-.446-1.313.06-1.82zm3.097-2.925c.507-.477 1.34-.477 1.817.06.476.507.476 1.343-.06 1.82-.506.477-1.34.477-1.816-.06a1.282 1.282 0 01.059-1.82zm3.217-3.044c.506-.477 1.34-.477 1.816.06.477.507.477 1.343-.059 1.82-.506.478-1.34.478-1.817-.06-.476-.507-.476-1.342.06-1.82zm3.067-2.924c.507-.478 1.34-.478 1.817.06.476.507.476 1.343-.06 1.82-.506.477-1.34.477-1.816-.06-.477-.537-.477-1.343.059-1.82zm3.306-3.163c.506-.478 1.34-.478 1.817.06.476.507.476 1.342-.06 1.82-.506.477-1.34.477-1.817-.06a1.283 1.283 0 01.06-1.82zm3.068-2.924c.506-.478 1.34-.478 1.816.06.477.506.477 1.342-.059 1.82-.507.477-1.34.477-1.817-.06-.476-.507-.447-1.313.06-1.82zm3.216-3.044c.506-.478 1.34-.478 1.817.06.476.507.476 1.342-.06 1.82-.506.477-1.34.477-1.817-.06-.476-.507-.476-1.343.06-1.82zm3.068-2.925c.506-.477 1.34-.477 1.816.06.477.507.477 1.343-.059 1.82-.507.478-1.34.478-1.817-.06a1.309 1.309 0 01.06-1.82zm3.305-3.163c.507-.477 1.341-.477 1.817.06.477.507.477 1.343-.059 1.82-.507.478-1.341.478-1.817-.06-.477-.507-.447-1.312.059-1.82zm3.068-2.924c.506-.477 1.34-.477 1.817.06.476.507.476 1.342-.06 1.82-.506.477-1.34.477-1.817-.06-.476-.507-.446-1.313.06-1.82zm3.216-3.044c.507-.477 1.341-.477 1.817.06.477.507.477 1.343-.059 1.82-.507.478-1.341.478-1.817-.06a1.309 1.309 0 01.059-1.82zm3.098-2.924c.506-.478 1.34-.478 1.816.06.477.507.477 1.342-.059 1.82-.506.477-1.34.477-1.817-.06a1.256 1.256 0 01.06-1.82zm3.276-3.134c.506-.477 1.34-.477 1.816.06.477.508.477 1.343-.059 1.82-.506.478-1.34.478-1.817-.06a1.309 1.309 0 01.06-1.82zm3.097-2.924c.506-.477 1.34-.477 1.817.06.476.507.476 1.343-.06 1.82-.506.478-1.34.478-1.816-.06-.477-.507-.477-1.342.059-1.82zM265 37.29c.506-.478 1.34-.478 1.816.06.477.507.477 1.342-.059 1.82-.507.477-1.34.477-1.817-.06a1.28 1.28 0 01.06-1.82zm3.067-2.925c.506-.477 1.34-.477 1.817.06.476.507.476 1.343-.06 1.82-.506.478-1.34.478-1.816-.06a1.282 1.282 0 01.059-1.82zm3.246-3.073c.507-.478 1.341-.478 1.817.06.477.507.477 1.342-.059 1.82-.507.477-1.341.477-1.817-.06-.507-.507-.477-1.313.059-1.82zm3.068-2.925c.506-.477 1.34-.477 1.817.06.476.507.476 1.343-.06 1.82-.506.478-1.34.478-1.817-.06a1.283 1.283 0 01.06-1.82zm3.216-3.043c.507-.478 1.341-.478 1.817.06.477.507.477 1.342-.059 1.82-.507.477-1.341.477-1.817-.06-.477-.537-.477-1.343.059-1.82zm3.068-2.925c.506-.477 1.34-.477 1.817.06.476.537.476 1.343-.06 1.82-.506.478-1.34.478-1.817-.06-.476-.507-.476-1.342.06-1.82zm3.306-3.163c.506-.477 1.34-.477 1.816.06.477.507.477 1.342-.059 1.82-.506.477-1.34.477-1.817-.06a1.283 1.283 0 01.06-1.82zm3.067-2.924c.507-.478 1.34-.478 1.817.06.476.507.476 1.342-.06 1.82-.506.477-1.34.477-1.816-.06-.477-.507-.447-1.313.059-1.82zm3.217-3.044c.506-.477 1.34-.477 1.816.06.477.507.477 1.342-.059 1.82-.506.477-1.34.477-1.817-.06a1.309 1.309 0 01.06-1.82zm3.067-2.925c.507-.477 1.34-.477 1.817.06.477.537.477 1.343-.06 1.82-.506.478-1.34.478-1.816-.06a1.309 1.309 0 01.059-1.82zM95.063 203.62c.507-.478 1.34-.477 1.817.06.476.507.476 1.342-.06 1.82-.506.477-1.34.477-1.816-.06-.477-.507-.477-1.343.06-1.82zm3.068-2.924c.506-.478 1.34-.478 1.817.059.476.508.476 1.343-.06 1.821-.506.477-1.34.477-1.817-.06-.476-.507-.476-1.343.06-1.82zm3.216-3.074c.507-.477 1.34-.477 1.817.06.476.507.476 1.342-.06 1.82-.506.477-1.34.477-1.816-.06a1.281 1.281 0 01.059-1.82zm3.068-2.924c.506-.478 1.34-.478 1.816.059.477.508.477 1.343-.059 1.821-.506.477-1.34.477-1.817-.06-.476-.507-.447-1.313.06-1.82zm3.306-3.134c.506-.477 1.34-.477 1.816.06.477.507.477 1.343-.059 1.82-.507.478-1.34.478-1.817-.059-.477-.508-.447-1.313.06-1.821zm3.067-2.924c.506-.477 1.34-.477 1.817.06.476.507.476 1.342-.06 1.82-.506.477-1.34.477-1.816-.06-.477-.507-.447-1.313.059-1.82zm3.217-3.044c.506-.477 1.34-.477 1.816.06.477.507.477 1.343-.059 1.82-.507.478-1.34.478-1.817-.059a1.31 1.31 0 01.06-1.821zm3.067-2.924c.506-.478 1.34-.478 1.817.06.476.507.476 1.342-.06 1.82-.506.477-1.34.477-1.816-.06a1.308 1.308 0 01.059-1.82zm3.246-3.074c.507-.477 1.341-.477 1.817.06.477.507.477 1.343-.059 1.82-.507.478-1.341.478-1.817-.059-.477-.538-.447-1.343.059-1.821zm3.068-2.924c.506-.478 1.34-.478 1.817.06.476.507.476 1.342-.06 1.82-.506.477-1.34.477-1.817-.06-.476-.537-.446-1.343.06-1.82zm3.216-3.074c.507-.477 1.341-.477 1.817.06.477.507.477 1.343-.059 1.82-.507.478-1.341.478-1.817-.059-.477-.508-.447-1.313.059-1.821zm3.068-2.924c.506-.478 1.34-.478 1.817.06.476.507.476 1.342-.06 1.82-.506.477-1.34.477-1.817-.06-.476-.507-.446-1.313.06-1.82zm3.306-3.133c.506-.478 1.34-.478 1.816.059.477.508.477 1.343-.059 1.821-.506.477-1.34.477-1.817-.06a1.308 1.308 0 01.06-1.82zm3.067-2.925c.507-.477 1.34-.477 1.817.06.477.507.477 1.343-.06 1.82-.506.478-1.34.478-1.816-.059a1.31 1.31 0 01.059-1.821zm3.217-3.073c.506-.478 1.34-.478 1.816.059.477.508.477 1.343-.059 1.821-.506.477-1.34.477-1.817-.06-.476-.507-.447-1.313.06-1.82zm3.067-2.925c.507-.477 1.341-.477 1.817.06.477.507.477 1.343-.06 1.82-.506.478-1.34.478-1.816-.059-.477-.508-.447-1.313.059-1.821zm3.336-3.133c.506-.477 1.34-.477 1.817.06.476.507.476 1.343-.06 1.82-.506.478-1.34.477-1.817-.06-.476-.507-.476-1.342.06-1.82zm3.067-2.924c.507-.478 1.341-.478 1.817.059.477.508.477 1.343-.059 1.821-.507.477-1.341.477-1.817-.06a1.308 1.308 0 01.059-1.82zm3.217-3.074c.506-.477 1.34-.477 1.817.06.476.507.476 1.343-.06 1.82-.506.478-1.34.478-1.817-.06-.476-.507-.446-1.313.06-1.82zm3.067-2.924c.507-.478 1.341-.478 1.817.059.477.508.477 1.343-.059 1.821-.507.477-1.341.477-1.817-.06-.477-.507-.447-1.313.059-1.82zm3.306-3.133c.507-.478 1.34-.478 1.817.059.476.507.476 1.343-.06 1.82-.506.478-1.34.478-1.816-.059-.477-.508-.447-1.313.059-1.82zm3.068-2.925c.506-.477 1.34-.477 1.817.06.476.507.476 1.343-.06 1.82-.506.478-1.34.478-1.817-.06-.476-.507-.446-1.313.06-1.82zm3.216-3.044c.507-.477 1.34-.477 1.817.06.477.507.477 1.343-.06 1.82-.506.478-1.34.478-1.816-.059a1.31 1.31 0 01.059-1.821zm3.068-2.924c.506-.477 1.34-.477 1.817.06.476.507.476 1.343-.06 1.82-.506.477-1.34.477-1.817-.06a1.31 1.31 0 01.06-1.82zm3.246-3.074c.506-.477 1.34-.477 1.817.06.476.507.476 1.343-.06 1.82-.506.478-1.34.478-1.816-.059-.477-.537-.447-1.343.059-1.821zm3.068-2.924c.506-.477 1.34-.477 1.816.06.477.507.477 1.343-.059 1.82-.507.477-1.34.477-1.817-.06-.476-.537-.447-1.342.06-1.82zm3.216-3.074c.506-.477 1.34-.477 1.817.06.476.507.476 1.343-.06 1.82-.506.478-1.34.478-1.816-.059-.477-.508-.447-1.313.059-1.821zm3.068-2.924c.506-.477 1.34-.477 1.816.06.477.507.477 1.343-.059 1.82-.507.478-1.34.478-1.817-.06-.476-.507-.447-1.313.06-1.82zm3.305-3.133c.507-.478 1.341-.478 1.817.06.477.507.477 1.342-.059 1.82-.507.477-1.341.477-1.817-.06a1.308 1.308 0 01.059-1.82zm3.068-2.925c.506-.477 1.34-.477 1.817.06.476.507.476 1.343-.06 1.82-.506.478-1.34.478-1.817-.059a1.31 1.31 0 01.06-1.821zm3.216-3.073c.507-.478 1.341-.478 1.817.06.477.507.477 1.342-.059 1.82-.507.477-1.341.477-1.817-.06-.477-.507-.447-1.313.059-1.82zm3.098-2.924c.506-.478 1.34-.478 1.816.059.477.507.477 1.343-.059 1.82-.506.478-1.34.478-1.817-.059a1.282 1.282 0 01.06-1.82zm3.276-3.104c.506-.477 1.34-.477 1.817.06.476.507.476 1.343-.06 1.82-.506.477-1.34.477-1.817-.06-.476-.507-.476-1.342.06-1.82zm3.067-2.924c.507-.478 1.341-.478 1.817.059.477.508.477 1.343-.059 1.821-.507.477-1.341.477-1.817-.06a1.308 1.308 0 01.059-1.82zm3.217-3.074c.506-.477 1.34-.477 1.817.06.476.507.476 1.343-.06 1.82-.506.478-1.34.478-1.817-.06-.476-.507-.446-1.313.06-1.82zm3.067-2.924c.507-.478 1.341-.478 1.817.06.477.507.477 1.342-.059 1.82-.507.477-1.341.477-1.817-.06-.477-.507-.447-1.313.059-1.82zm3.306-3.133c.506-.478 1.34-.478 1.817.06.476.507.476 1.342-.06 1.82-.506.477-1.34.477-1.816-.06-.477-.508-.447-1.313.059-1.82zm3.068-2.925c.506-.477 1.34-.477 1.816.06.477.507.477 1.343-.059 1.82-.506.477-1.34.477-1.817-.06-.476-.507-.447-1.313.06-1.82zm3.216-3.044c.506-.477 1.34-.477 1.817.06.476.507.476 1.343-.06 1.82-.506.478-1.34.478-1.816-.06a1.309 1.309 0 01.059-1.82zm3.068-2.924c.506-.478 1.34-.477 1.816.06.477.507.477 1.343-.059 1.82-.506.477-1.34.477-1.817-.06a1.309 1.309 0 01.06-1.82zm3.246-3.074c.506-.477 1.34-.477 1.817.06.476.507.476 1.343-.06 1.82-.506.478-1.34.478-1.817-.06-.476-.536-.446-1.342.06-1.82zm3.068-2.924c.506-.477 1.34-.477 1.816.06.477.507.477 1.343-.059 1.82-.507.477-1.341.477-1.817-.06-.477-.537-.447-1.343.06-1.82zm3.216-3.073c.506-.478 1.34-.478 1.817.06.476.506.476 1.342-.06 1.82-.506.477-1.34.477-1.817-.06-.476-.508-.446-1.313.06-1.82zm3.068-2.925c.506-.477 1.34-.477 1.816.06.477.507.477 1.343-.059 1.82-.507.478-1.34.478-1.817-.06-.477-.507-.447-1.313.06-1.82zm3.305-3.133c.507-.478 1.341-.478 1.817.06.477.507.477 1.342-.059 1.82-.507.477-1.341.477-1.817-.06a1.309 1.309 0 01.059-1.82zm3.068-2.925c.506-.477 1.34-.477 1.817.06.476.507.476 1.343-.06 1.82-.506.478-1.34.478-1.817-.06a1.31 1.31 0 01.06-1.82zm3.216-3.073c.507-.478 1.341-.478 1.817.06.477.507.477 1.342-.059 1.82-.507.477-1.341.477-1.817-.06-.477-.507-.447-1.313.059-1.82zm3.098-2.924c.506-.478 1.34-.478 1.816.06.477.507.477 1.342-.059 1.82-.506.477-1.34.477-1.817-.06a1.283 1.283 0 01.06-1.82zm3.306-3.134c.506-.477 1.34-.477 1.816.06.477.507.477 1.343-.059 1.82-.507.478-1.341.478-1.817-.06-.477-.507-.477-1.342.06-1.82zm3.067-2.924c.506-.478 1.34-.478 1.817.06.476.507.476 1.342-.06 1.82-.506.477-1.34.477-1.817-.06a1.31 1.31 0 01.06-1.82zm3.217-3.074c.506-.477 1.34-.477 1.816.06.477.507.477 1.343-.059 1.82-.507.478-1.341.478-1.817-.06-.477-.507-.447-1.312.06-1.82zm3.067-2.924c.506-.477 1.34-.477 1.817.06.476.507.476 1.342-.06 1.82-.506.477-1.34.477-1.816-.06-.477-.507-.447-1.313.059-1.82zm3.306-3.133c.506-.478 1.34-.478 1.817.06.476.507.476 1.342-.06 1.82-.506.477-1.34.477-1.817-.06-.476-.507-.446-1.313.06-1.82zm3.067-2.925c.507-.477 1.341-.477 1.817.06.477.507.477 1.343-.059 1.82-.507.478-1.341.478-1.817-.06-.477-.507-.447-1.312.059-1.82zm3.217-3.044c.506-.477 1.34-.477 1.817.06.476.508.476 1.343-.06 1.82-.506.478-1.34.478-1.817-.06a1.31 1.31 0 01.06-1.82zm3.067-2.924c.507-.477 1.341-.477 1.817.06.477.507.477 1.343-.059 1.82-.507.478-1.341.478-1.817-.06a1.309 1.309 0 01.059-1.82zm3.247-3.103c.506-.478 1.34-.478 1.816.06.477.507.477 1.342-.059 1.82-.506.477-1.34.477-1.817-.06-.476-.507-.447-1.313.06-1.82zm3.067-2.895c.507-.477 1.34-.477 1.817.06.476.507.476 1.343-.06 1.82-.506.478-1.34.478-1.816-.06-.477-.537-.447-1.342.059-1.82zm3.217-3.073c.506-.478 1.34-.478 1.816.06.477.507.477 1.342-.059 1.82-.506.477-1.34.477-1.817-.06-.476-.507-.447-1.313.06-1.82zm3.067-2.925c.507-.477 1.34-.477 1.817.06.476.507.476 1.343-.06 1.82-.506.478-1.34.478-1.816-.06-.477-.507-.447-1.313.059-1.82zm3.306-3.133c.506-.477 1.34-.477 1.817.06.476.507.476 1.342-.06 1.82-.506.477-1.34.477-1.817-.06a1.31 1.31 0 01.06-1.82zm3.097-2.924c.507-.478 1.341-.478 1.817.06.477.507.477 1.342-.059 1.82-.507.477-1.341.477-1.817-.06a1.256 1.256 0 01.059-1.82zm3.187-3.074c.506-.477 1.34-.477 1.817.06.476.507.476 1.342-.06 1.82-.506.477-1.34.477-1.816-.06-.477-.507-.447-1.313.059-1.82zm3.097-2.924c.507-.478 1.341-.478 1.817.06.477.507.477 1.342-.059 1.82-.507.477-1.341.477-1.817-.06a1.282 1.282 0 01.059-1.82zM90.387 198.696c.507-.477 1.34-.477 1.817.06.477.507.477 1.343-.06 1.82-.506.478-1.34.478-1.816-.059-.477-.508-.447-1.313.06-1.821zm3.098-2.924c.506-.478 1.34-.478 1.817.06.476.507.476 1.342-.06 1.82-.506.477-1.34.477-1.817-.06a1.282 1.282 0 01.06-1.82zm3.216-3.044c.507-.477 1.34-.477 1.817.06.476.507.476 1.343-.06 1.82-.506.478-1.34.478-1.816-.06-.477-.507-.477-1.342.06-1.82zm3.068-2.924c.506-.478 1.34-.478 1.816.059.477.508.477 1.343-.059 1.821-.506.477-1.34.477-1.817-.06-.476-.507-.476-1.343.06-1.82zm3.306-3.133c.506-.478 1.34-.478 1.816.059.477.507.477 1.343-.059 1.82-.507.478-1.34.478-1.817-.059-.477-.508-.477-1.343.06-1.82zm3.067-2.925c.506-.477 1.34-.477 1.817.06.476.507.476 1.343-.06 1.82-.506.478-1.34.478-1.816-.06-.477-.507-.447-1.342.059-1.82zm3.217-3.073c.506-.478 1.34-.478 1.816.059.477.508.477 1.343-.059 1.82-.507.478-1.34.478-1.817-.059-.476-.507-.447-1.313.06-1.82zm3.067-2.925c.506-.477 1.34-.477 1.817.06.476.507.476 1.343-.06 1.82-.506.478-1.34.478-1.816-.06-.477-.507-.447-1.313.059-1.82zm3.246-3.073c.507-.478 1.341-.478 1.817.059.477.508.477 1.343-.059 1.821-.507.477-1.341.477-1.817-.06a1.281 1.281 0 01.059-1.82zm3.068-2.925c.506-.477 1.34-.477 1.817.06.476.507.476 1.343-.06 1.82-.506.478-1.34.478-1.817-.06-.476-.507-.446-1.313.06-1.82zm3.216-3.044c.507-.477 1.341-.477 1.817.06.477.507.477 1.343-.059 1.82-.507.478-1.341.478-1.817-.059-.477-.537-.447-1.343.059-1.821zm3.068-2.924c.506-.477 1.34-.477 1.817.06.476.507.476 1.343-.06 1.82-.506.477-1.34.477-1.817-.06-.476-.507-.446-1.342.06-1.82zm3.306-3.163c.506-.477 1.34-.477 1.816.06.477.507.477 1.342-.059 1.82-.506.477-1.34.477-1.817-.06-.476-.507-.447-1.313.06-1.82zm3.067-2.924c.507-.478 1.34-.478 1.817.059.477.508.477 1.343-.06 1.821-.506.477-1.34.477-1.816-.06-.477-.507-.447-1.313.059-1.82zm3.217-3.044c.506-.478 1.34-.478 1.816.06.477.507.477 1.342-.059 1.82-.506.477-1.34.477-1.817-.06a1.308 1.308 0 01.06-1.82zm3.067-2.924c.507-.478 1.341-.478 1.817.059.477.507.477 1.343-.06 1.82-.506.478-1.34.478-1.816-.059a1.308 1.308 0 01.059-1.82zm3.336-3.164c.506-.477 1.34-.477 1.817.06.476.507.476 1.343-.06 1.82-.506.478-1.34.478-1.817-.059a1.284 1.284 0 01.06-1.821zm3.067-2.924c.507-.477 1.341-.477 1.817.06.477.507.477 1.343-.059 1.82-.507.477-1.341.477-1.817-.06a1.281 1.281 0 01.059-1.82zm3.217-3.044c.506-.477 1.34-.477 1.817.06.476.507.476 1.343-.06 1.82-.506.478-1.34.478-1.817-.059-.476-.508-.476-1.343.06-1.821zm3.067-2.924c.507-.478 1.341-.478 1.817.06.477.507.477 1.342-.059 1.82-.507.477-1.341.477-1.817-.06a1.308 1.308 0 01.059-1.82zm3.306-3.133c.507-.478 1.34-.478 1.817.059.476.508.476 1.343-.06 1.821-.506.477-1.34.477-1.816-.06-.477-.507-.477-1.343.059-1.82zm3.068-2.925c.506-.477 1.34-.477 1.817.06.476.507.476 1.343-.06 1.82-.506.478-1.34.478-1.817-.059a1.31 1.31 0 01.06-1.821zm3.216-3.073c.507-.478 1.34-.478 1.817.059.476.508.476 1.343-.06 1.821-.506.477-1.34.477-1.816-.06-.477-.507-.447-1.313.059-1.82zm3.068-2.925c.506-.477 1.34-.477 1.817.06.476.507.476 1.343-.06 1.82-.506.478-1.34.478-1.817-.059-.476-.508-.446-1.313.06-1.821zm3.246-3.073c.506-.478 1.34-.478 1.817.059.476.508.476 1.343-.06 1.821-.506.477-1.34.477-1.816-.06a1.308 1.308 0 01.059-1.82zm3.068-2.925c.506-.477 1.34-.477 1.816.06.477.507.477 1.343-.059 1.82-.507.478-1.34.478-1.817-.059-.476-.508-.447-1.313.06-1.821zm3.216-3.043c.506-.478 1.34-.478 1.817.059.476.508.476 1.343-.06 1.821-.506.477-1.34.477-1.816-.06-.477-.537-.447-1.343.059-1.82zm3.068-2.925c.506-.477 1.34-.477 1.816.06.477.507.477 1.343-.059 1.82-.507.478-1.34.478-1.817-.059a1.31 1.31 0 01.06-1.821zm3.305-3.163c.507-.477 1.341-.477 1.817.06.477.507.477 1.343-.059 1.82-.507.478-1.341.478-1.817-.06-.477-.507-.447-1.313.059-1.82zm3.068-2.924c.506-.478 1.34-.478 1.817.059.476.508.476 1.343-.06 1.821-.506.477-1.34.477-1.817-.06-.476-.507-.446-1.313.06-1.82zm3.216-3.044c.507-.477 1.341-.477 1.817.06.477.507.477 1.343-.059 1.82-.507.477-1.341.477-1.817-.06a1.308 1.308 0 01.059-1.82zm3.068-2.924c.506-.478 1.34-.478 1.817.059.476.508.476 1.343-.06 1.821-.506.477-1.34.477-1.817-.06a1.31 1.31 0 01.06-1.82zm3.306-3.134c.506-.477 1.34-.477 1.817.06.476.507.476 1.343-.06 1.82-.506.478-1.34.478-1.817-.059a1.284 1.284 0 01.06-1.821zm3.067-2.924c.507-.477 1.341-.477 1.817.06.477.507.477 1.343-.059 1.82-.507.477-1.341.477-1.817-.06a1.281 1.281 0 01.059-1.82zm3.217-3.044c.506-.477 1.34-.477 1.817.06.476.507.476 1.343-.06 1.82-.506.478-1.34.478-1.817-.06-.476-.507-.476-1.342.06-1.82zm3.067-2.924c.507-.478 1.341-.477 1.817.06.477.507.477 1.342-.059 1.82-.507.477-1.341.477-1.817-.06a1.309 1.309 0 01.059-1.82zm3.306-3.133c.506-.478 1.34-.478 1.817.06.476.507.476 1.342-.06 1.82-.506.477-1.34.477-1.816-.06-.477-.507-.477-1.343.059-1.82zm3.068-2.925c.506-.477 1.34-.477 1.816.06.477.507.477 1.343-.059 1.82-.506.478-1.34.478-1.817-.06a1.309 1.309 0 01.06-1.82zm3.216-3.073c.507-.478 1.34-.478 1.817.06.476.507.476 1.342-.06 1.82-.506.477-1.34.477-1.816-.06-.477-.507-.447-1.313.059-1.82zm3.068-2.925c.506-.477 1.34-.477 1.816.06.477.507.477 1.343-.059 1.82-.506.478-1.34.478-1.817-.06-.476-.507-.447-1.312.06-1.82zm3.246-3.073c.506-.478 1.34-.478 1.817.06.476.507.476 1.342-.06 1.82-.506.477-1.34.477-1.817-.06a1.31 1.31 0 01.06-1.82zm3.068-2.925c.506-.477 1.34-.477 1.816.06.477.507.477 1.343-.059 1.82-.507.478-1.34.478-1.817-.06-.477-.507-.447-1.312.06-1.82zm3.216-3.043c.506-.478 1.34-.478 1.817.06.476.507.476 1.342-.06 1.82-.506.477-1.34.477-1.817-.06-.476-.537-.446-1.343.06-1.82zm3.068-2.925c.506-.477 1.34-.477 1.816.06.477.507.477 1.343-.059 1.82-.507.478-1.34.478-1.817-.06a1.308 1.308 0 01.06-1.82zm3.305-3.163c.507-.477 1.341-.477 1.817.06.477.507.477 1.343-.059 1.82-.507.477-1.341.477-1.817-.06-.477-.507-.447-1.313.059-1.82zm3.068-2.924c.506-.478 1.34-.478 1.817.06.476.507.476 1.342-.06 1.82-.506.477-1.34.477-1.817-.06-.476-.507-.446-1.313.06-1.82zm3.216-3.044c.507-.477 1.341-.477 1.817.06.477.507.477 1.343-.059 1.82-.507.477-1.341.477-1.817-.06a1.309 1.309 0 01.059-1.82zm3.068-2.924c.506-.478 1.34-.478 1.817.06.476.507.476 1.342-.06 1.82-.506.477-1.34.477-1.817-.06a1.31 1.31 0 01.06-1.82zm3.336-3.163c.506-.478 1.34-.478 1.816.06.477.507.477 1.342-.059 1.82-.507.477-1.341.477-1.817-.06a1.28 1.28 0 01.06-1.82zm3.067-2.925c.506-.477 1.34-.477 1.817.06.476.507.476 1.343-.06 1.82-.506.478-1.34.478-1.817-.06a1.283 1.283 0 01.06-1.82zm3.217-3.044c.506-.477 1.34-.477 1.816.06.477.507.477 1.343-.059 1.82-.507.478-1.341.478-1.817-.06-.477-.507-.477-1.342.06-1.82zm3.067-2.924c.506-.477 1.34-.477 1.817.06.476.507.476 1.343-.06 1.82-.506.477-1.34.477-1.816-.06-.477-.537-.447-1.343.059-1.82zm3.306-3.133c.506-.478 1.34-.478 1.817.06.476.507.476 1.342-.06 1.82-.506.477-1.34.477-1.817-.06-.476-.537-.446-1.343.06-1.82zm3.067-2.925c.507-.477 1.341-.477 1.817.06.477.507.477 1.343-.059 1.82-.507.478-1.341.478-1.817-.06a1.309 1.309 0 01.059-1.82zm3.217-3.073c.506-.478 1.34-.478 1.817.06.476.507.476 1.342-.06 1.82-.506.477-1.34.477-1.817-.06-.476-.507-.446-1.313.06-1.82zm3.067-2.925c.507-.477 1.341-.477 1.817.06.477.507.477 1.343-.059 1.82-.507.478-1.341.478-1.817-.06-.477-.507-.447-1.312.059-1.82zm3.247-3.073c.506-.478 1.34-.478 1.816.06.477.507.477 1.342-.059 1.82-.506.477-1.34.477-1.817-.06a1.309 1.309 0 01.06-1.82zm3.067-2.925c.507-.477 1.34-.477 1.817.06.476.508.476 1.343-.06 1.82-.506.478-1.34.478-1.816-.06-.477-.506-.447-1.312.059-1.82zm3.217-3.043c.506-.478 1.34-.478 1.816.06.477.507.477 1.342-.059 1.82-.506.477-1.34.477-1.817-.06-.476-.537-.447-1.343.06-1.82zm3.067-2.925c.507-.477 1.34-.477 1.817.06.476.507.476 1.343-.06 1.82-.506.478-1.34.478-1.816-.06-.477-.537-.447-1.342.059-1.82zm3.306-3.163c.506-.477 1.34-.477 1.817.06.476.537.476 1.343-.06 1.82-.506.478-1.34.478-1.817-.06-.476-.507-.446-1.312.06-1.82zm3.068-2.924c.506-.478 1.34-.478 1.816.06.477.507.477 1.342-.059 1.82-.507.477-1.34.477-1.817-.06-.476-.507-.447-1.313.06-1.82zm3.216-3.044c.506-.477 1.34-.477 1.817.06.476.507.476 1.343-.06 1.82-.506.478-1.34.478-1.816-.06a1.309 1.309 0 01.059-1.82zm3.097-2.924c.507-.478 1.341-.478 1.817.06.477.507.477 1.342-.059 1.82-.507.477-1.341.477-1.817-.06a1.256 1.256 0 01.059-1.82zM94.26 199.68c.505-.477 1.34-.477 1.816.06.476.507.476 1.342-.06 1.82-.506.477-1.34.477-1.817-.06-.476-.507-.446-1.313.06-1.82zm45.625 23.126a1.114 1.114 0 011.549.03c.417.418.387 1.134-.03 1.552a1.113 1.113 0 01-1.549-.03c-.417-.447-.417-1.134.03-1.552z" fill="#C9DEEF"/></g><g opacity=".3" clip-path="url(#clip2)"><path fill-rule="evenodd" clip-rule="evenodd" d="M110.486 229.018c-9.394 0-16.94 7.597-16.94 16.883 0 9.362 7.623 16.883 16.94 16.883 9.394 0 16.941-7.598 16.941-16.883 0-9.363-7.624-16.883-16.941-16.883z" fill="#089DEE"/><path fill-rule="evenodd" clip-rule="evenodd" d="M110.486 238.073a7.743 7.743 0 00-7.777 7.751 7.742 7.742 0 007.777 7.751 7.742 7.742 0 007.777-7.751c0-4.221-3.465-7.751-7.777-7.751z" fill="#F0F8FD"/><path d="M114.105 222.034h-8.162v8.979h8.162v-8.979zm0 37.987h-8.162V269h8.162v-8.979zm9.65-5.086l-6.948 4.269 4.727 7.643 6.948-4.268-4.727-7.644zm-26.312.057l-4.727 7.644 6.949 4.268 4.727-7.644-6.949-4.268zm24.062-30.39l-4.727 7.644 6.949 4.268 4.727-7.643-6.949-4.269zm-21.867-.043l-6.949 4.269 4.728 7.643 6.948-4.268-4.727-7.644zm-3.642 16.791l-9.002.363.33 8.128 9.002-.363-.33-8.128zm38.426-.001l-9.003.363.331 8.128 9.002-.363-.33-8.128z" fill="#089DEE"/><path fill-rule="evenodd" clip-rule="evenodd" d="M143.828 208.912c-6.622 0-12.012 5.372-12.012 11.971 0 6.6 5.39 11.972 12.012 11.972 6.623 0 12.013-5.372 12.013-11.972 0-6.599-5.39-11.971-12.013-11.971z" fill="#089DEE"/><path fill-rule="evenodd" clip-rule="evenodd" d="M143.828 215.358a5.512 5.512 0 00-5.544 5.525 5.512 5.512 0 005.544 5.526 5.513 5.513 0 005.545-5.526c-.077-3.069-2.542-5.525-5.545-5.525z" fill="#F0F8FD"/><path d="M146.369 204h-5.775v6.37h5.775V204zm0 26.859h-5.775v6.37h5.775v-6.37zm-11.829-3.525l-3.353 5.422 4.916 3.02 3.354-5.422-4.917-3.02zm1.637-21.551l-4.916 3.02 3.354 5.422 4.916-3.02-3.354-5.422zm-2.63 11.905l-6.386.258.233 5.751 6.387-.258-.234-5.751zm27.26-.001l-6.386.257.233 5.751 6.386-.257-.233-5.751z" fill="#089DEE"/></g><g clip-path="url(#clip3)"><path fill-rule="evenodd" clip-rule="evenodd" d="M240.86 264.206c-13.05 3.75-23.001 3.75-29.813 0l.115-10.025a7.436 7.436 0 005.817 2.487 7.503 7.503 0 005.626-2.832 3.656 3.656 0 012.908-.076 3.656 3.656 0 012.067 2.066 1293.39 1293.39 0 017.233 2.717c1.646-.459 3.406-.038 4.631 1.148 1.263 1.11 1.799 2.832 1.416 4.515z" fill="#010101"/><path fill-rule="evenodd" clip-rule="evenodd" d="M211.124 251.847c5.893-.115 12.476-.421 12.476-.421 3.444-38.496 5.167-57.782 5.167-57.782l.344-54.95c-22.503-3.215-33.257-1.99-32.224 3.75a80480 80480 0 0012.591 54.835l-2.411 6.544c2.717 33.024 4.057 48.024 4.057 48.024z" fill="#000"/><path fill-rule="evenodd" clip-rule="evenodd" d="M177.292 250.966c6.085.306 13.51.268 13.51.268a56712.833 56712.833 0 0020.819-57.016 64361.993 64361.993 0 0115.117-54.53c-22.312-4.783-33.678-4.324-34.176 1.454-1.186 36.889-1.76 55.333-1.76 55.333l-4.248 6.314c-6.851 33.1-9.262 48.177-9.262 48.177z" fill="#1A1613"/><path fill-rule="evenodd" clip-rule="evenodd" d="M227.58 85.695a6023.928 6023.928 0 013.253 18.903l24.226 6.199s1.53-13.66 4.554-41.021c0 0-3.521-.574-10.601-1.684 0 0-1.569 8.763-4.746 26.327 0-.038-5.549-2.946-16.686-8.724z" fill="#295390"/><path fill-rule="evenodd" clip-rule="evenodd" d="M226.93 89.636a76812.91 76812.91 0 00-4.057 63.828s-8.994-.076-26.981-.268c1.569-44.886 2.334-67.31 2.334-67.31a8273.582 8273.582 0 0028.704 3.75z" fill="#E5E5E5"/><path fill-rule="evenodd" clip-rule="evenodd" d="M197.04 150.059c.957-38.343 1.416-57.476 1.416-57.476a45251.753 45251.753 0 0124.608 57.667 6577 6577 0 00-26.024-.191z" fill="#F6F7F7"/><path fill-rule="evenodd" clip-rule="evenodd" d="M251.844 62.2l6.697 1.11a1.384 1.384 0 011.148 1.568l-.574 4.707c-.076.727-.765 1.225-1.492 1.11l-6.698-1.11a1.384 1.384 0 01-1.148-1.569l.574-4.707c.077-.727.766-1.224 1.493-1.11z" fill="#FAB792"/><path fill-rule="evenodd" clip-rule="evenodd" d="M221.993 139.038c3.674-20.281 4.707-32.373 3.023-36.276 0 0 .88-5.51 2.602-16.493 0 0 1.455.842 4.363 2.487 0 0 1.378 25.677 4.095 77.068 0 0-5.664 0-16.954.039 0 0 .957-8.955 2.871-26.825zM188.467 82.94c-12.744 55.754-19.097 83.65-19.097 83.65s9.721-.115 29.201-.383c0 0 1.186-9.299 3.521-27.896-1.493-37.654-2.22-56.48-2.22-56.48-7.578.726-11.405 1.109-11.405 1.109z" fill="#203D76"/><path fill-rule="evenodd" clip-rule="evenodd" d="M220.041 99.815l13.165 29.695c6.353 3.635 9.529 5.433 9.529 5.433.421 6.314.651 9.452.651 9.452l-10.027.115a5225.553 5225.553 0 01-6.85-10.753l-9.798-33.177c-1.378-.191-2.679-.956-3.559-2.18 1.722-4.325 2.602-6.506 2.602-6.506 1.876.115 3.981 1.416 6.315 3.98a4.585 4.585 0 01-2.028 3.941z" fill="#2F70FE"/><path fill-rule="evenodd" clip-rule="evenodd" d="M212.731 100.313a18355.9 18355.9 0 00-18.408-18.215c5.587-1.952 8.381-2.947 8.381-2.947 9.3 8.419 13.969 12.59 13.969 12.59 2.985-6.773 4.478-10.14 4.478-10.14 4.095.918 6.161 1.339 6.161 1.339-2.794 10.446-4.171 15.65-4.171 15.65s-2.143-2.295-6.468-6.85c-2.603 5.703-3.942 8.573-3.942 8.573z" fill="#fff"/><path fill-rule="evenodd" clip-rule="evenodd" d="M223.753 116.308c1.301 5.242 1.952 7.883 1.952 7.883s2.028-7.73 6.085-23.151l-5.856-3.024 6.2-.803-3.253-12.972-5.243-1.646.115 33.713zm5.626-56.29h11.29l-.039 2.87h-11.289l.038-2.87z" fill="#3362A6"/><path fill-rule="evenodd" clip-rule="evenodd" d="M248.591 67.365l12.093 2.258-.535 3.712-12.056-2.22.498-3.75z" fill="#fff"/><path fill-rule="evenodd" clip-rule="evenodd" d="M239.176 59.406h15.844l-.076 4.477H239.1l.076-4.477zm16.457-1.033h31.688l-.115 6.467h-31.688l.115-6.467z" fill="#192953"/><path fill-rule="evenodd" clip-rule="evenodd" d="M285.178 55.81H290l-.23 11.326h-4.822l.23-11.327z" fill="#3362A6"/><path fill-rule="evenodd" clip-rule="evenodd" d="M169.982 128.821c5.779-2.564 8.688-3.865 8.688-3.865s-3.062-6.926-9.147-20.74l19.748-7.462c5.243-2.028 6.736-2.181 7.884-5.587 1.11-3.368 0-7.194-2.794-9.643-2.794-2.45-5.664-3.215-9.874-1.34C162.175 90.554 151 95.76 151 95.76c12.668 22.041 18.982 33.062 18.982 33.062z" fill="#295390"/><path fill-rule="evenodd" clip-rule="evenodd" d="M178.632 127.137a581.486 581.486 0 00-6.774 2.793c-3.827 6.391-5.741 9.567-5.741 9.567 1.76 3.023 5.052 4.821 8.458 4.592 3.368-.23 6.2-2.449 7.195-5.625-1.263-4.937-1.914-7.386-1.914-7.386l5.129-.114a1.882 1.882 0 001.569-1.99c-.039-.995-.804-1.837-1.799-1.99-4.057.076-6.123.153-6.123.153z" fill="#FAB792"/><path fill-rule="evenodd" clip-rule="evenodd" d="M167.495 128.476l11.405-5.165 1.798 3.635-11.366 5.166-1.837-3.636z" fill="#fff"/><path fill-rule="evenodd" clip-rule="evenodd" d="M199.068 121.512l2.641 9.528s.995-3.75 3.023-11.212c0 0-.306-13.584-.956-40.715-5.703.689-8.573.995-8.573.995-3.789 13.316-5.702 19.975-5.702 19.975 6.467.038 9.72.038 9.72.038l-8.955 5.51c5.855 10.6 8.802 15.881 8.802 15.881z" fill="#3362A6"/><path fill-rule="evenodd" clip-rule="evenodd" d="M205.383 264.092c-13.624 3.635-23.537 3.597-29.775-.192a6439.168 6439.168 0 001.608-10.025c1.224 1.645 3.214 2.563 5.434 2.525 2.22-.038 4.439-1.071 6.047-2.793.995-.421 2.028-.459 2.908-.077.881.383 1.531 1.11 1.761 2.067 4.554 1.836 6.85 2.755 6.85 2.755 1.723-.459 3.407 0 4.478 1.186 1.033 1.148 1.301 2.87.689 4.554z" fill="#010101"/><path fill-rule="evenodd" clip-rule="evenodd" d="M225.581 59.642c.765-.191 1.492.306 1.684 1.033.191.766-.306 1.493-1.034 1.684-.765.191-1.492-.306-1.683-1.033-.192-.765.306-1.492 1.033-1.684z" fill="#000"/><path fill-rule="evenodd" clip-rule="evenodd" d="M205.613 64.15l.88 2.641c.383 1.378.076 2.45-.995 3.1-1.072.612-2.564.42-3.177-.65l-4.822-8.496c-4.018-6.85-2.066-11.939 5.817-15.345 11.214-4.17 19.442-5.357 24.685-3.635.077.038.153.038.191.077h.039c.076.038.153.038.191.076h.038c.077.038.153.038.23.077h.038c.077.038.153.076.23.076 1.492.65 2.679 1.57 3.597 2.756 1.263 1.76 1.493 4.056.574 6.007a5.983 5.983 0 01-5.013 3.406 5.82 5.82 0 01-3.291-.765 5.811 5.811 0 01-2.105-1.99c-7.348.23-10.563 2.41-9.683 6.582.689 3.635-.344 5.74-3.1 6.275l-2.832-3.712-1.492 3.52z" fill="#211C18"/><path fill-rule="evenodd" clip-rule="evenodd" d="M206.301 62.877l.842 2.351c.383 1.213.077 2.205-.918 2.756-.995.551-2.411.368-2.947-.588l-4.478-7.57c-2.793-4.556-2.449-8.267.919-11.096.038.551.153 1.066.268 1.617.995 4.152 4.095 7.312 7.998 8.672 0 .404 0 .808.039 1.212l-.306-.367-1.417 3.013z" fill="#010101"/><path fill-rule="evenodd" clip-rule="evenodd" d="M227.159 55.962c.345.306.459.46.383.765-.077.307-.306.46-.727.498h-.995c-.383 0-.689-.153-.842-.46a1.026 1.026 0 01.038-.994c.191-.306.536-.498.918-.383.575.192.996.383 1.225.574z" fill="#1A1613"/><mask id="b" fill="#fff"><path fill-rule="evenodd" clip-rule="evenodd" d="M205.889 66.721c-.06.815.167 1.413.68 1.793l.063.194c-.048 1.405-.242 5.79-.905 10.176 0 0-2.564 1.033-7.654 3.023 4.21 6.85 11.52 11.786 17.643 11.977 6.123.153 9.415-4.516 7.922-11.25-3.176-.65-4.745-.995-4.745-.995-.694-1.963-1.257-3.55-1.687-4.76.669.276 1.346.536 2.031.78 3.483 1.301 5.626-.459 6.43-5.204.688-4.21 1.301-8.686.574-10.255-.651-1.225-.804-2.143.153-3.1 1.492-1.34.842-3.52-1.876-6.428-2.028-2.182-5.128-2.985-7.922-2.067-2.793.957-4.822 3.406-5.166 6.352a66.03 66.03 0 00-2.37 3.196 3.54 3.54 0 00-3.218-2.048c-1.454-.038-2.755.804-3.368 2.143-.574 1.301-.344 2.87.613 3.903 1.148 1.148 2.028 2.028 2.794 2.564a.056.056 0 00.008.006z"/></mask><path fill-rule="evenodd" clip-rule="evenodd" d="M205.889 66.721c-.06.815.167 1.413.68 1.793l.063.194c-.048 1.405-.242 5.79-.905 10.176 0 0-2.564 1.033-7.654 3.023 4.21 6.85 11.52 11.786 17.643 11.977 6.123.153 9.415-4.516 7.922-11.25-3.176-.65-4.745-.995-4.745-.995-.694-1.963-1.257-3.55-1.687-4.76.669.276 1.346.536 2.031.78 3.483 1.301 5.626-.459 6.43-5.204.688-4.21 1.301-8.686.574-10.255-.651-1.225-.804-2.143.153-3.1 1.492-1.34.842-3.52-1.876-6.428-2.028-2.182-5.128-2.985-7.922-2.067-2.793.957-4.822 3.406-5.166 6.352a66.03 66.03 0 00-2.37 3.196 3.54 3.54 0 00-3.218-2.048c-1.454-.038-2.755.804-3.368 2.143-.574 1.301-.344 2.87.613 3.903 1.148 1.148 2.028 2.028 2.794 2.564a.056.056 0 00.008.006z" fill="#fff"/><path d="M206.569 68.514l.573-.181-.059-.186-.157-.116-.357.483zm-.68-1.793l.599.045.025-.34-.279-.196-.345.491zm.743 1.987l.6.02.004-.106-.034-.102-.57.188zm-.905 10.176l.225.556.317-.128.052-.339-.594-.09zm-7.654 3.023l-.218-.56-.669.262.376.612.511-.314zm17.643 11.977l-.019.6h.004l.015-.6zm7.922-11.25l.586-.13-.084-.38-.381-.078-.121.588zm-4.745-.995l-.566.2.111.314.326.072.129-.586zm-1.687-4.76l.229-.554-1.245-.513.451 1.268.565-.2zm2.031.78l.21-.562-.009-.003-.201.565zm6.43-5.204l.591.1.001-.003-.592-.097zm.574-10.255l.544-.253-.007-.014-.007-.015-.53.282zm.153-3.1l-.401-.446-.012.01-.011.012.424.424zm-1.876-6.428l-.439.408.001.001.438-.41zm-7.922-2.067l-.187-.57-.007.003.194.567zm-5.166 6.352l.472.37.104-.132.02-.168-.596-.07zm-2.37 3.196l-.545.252.441.953.597-.863-.493-.342zm-3.218-2.048l-.016.6h.016v-.6zm-3.368 2.143l-.545-.25-.004.008.549.242zm.613 3.903l-.44.408.007.008.008.009.425-.425zm0 0l-.424.425.424-.425zm2.794 2.564l.345-.49-.001-.001-.344.491zm1.045 1.316c-.301-.223-.488-.59-.438-1.265l-1.197-.09c-.071.956.196 1.784.922 2.32l.713-.965zm.276.49l-.06-.188-1.145.361.065.202 1.14-.376zm-.881 10.452c.668-4.42.863-8.832.911-10.244l-1.199-.041c-.048 1.396-.241 5.755-.899 10.106l1.187.18zm-8.029 3.492a1164.56 1164.56 0 007.178-2.832l.361-.144.09-.037.023-.009.006-.002h.002l-.225-.557-.224-.557h-.002l-.005.003-.022.009a577101180475.826 577101180475.826 0 01-1.886.752 1224.81 1224.81 0 01-5.733 2.257l.437 1.117zm17.443 10.82c-5.862-.184-13.011-4.957-17.151-11.693l-1.022.629c4.28 6.963 11.751 12.063 18.135 12.263l.038-1.2zm7.317-10.522c.722 3.256.268 5.92-1.009 7.733-1.267 1.798-3.414 2.86-6.312 2.788l-.03 1.2c3.225.08 5.786-1.115 7.323-3.297 1.526-2.166 1.971-5.204 1.2-8.683l-1.172.26zm-4.159-1.124l-.129.586h.005a.04.04 0 00.014.004l.056.012.222.048.889.19c.79.168 1.978.417 3.568.742l.241-1.175a521.009 521.009 0 01-4.445-.93l-.22-.047-.055-.012-.013-.003-.004-.001h-.001l-.128.586zm-2.252-4.559c.43 1.21.992 2.796 1.686 4.759l1.131-.4c-.693-1.963-1.256-3.55-1.686-4.76l-1.131.401zm2.797.014a44.364 44.364 0 01-2.003-.77l-.457 1.11c.678.28 1.364.543 2.058.79l.402-1.13zm5.637-4.74c-.394 2.328-1.097 3.774-1.997 4.505-.852.692-2.013.843-3.631.238l-.42 1.124c1.864.697 3.516.618 4.808-.43 1.243-1.01 2.014-2.817 2.423-5.236l-1.183-.2zm.621-9.902c.132.285.226.764.259 1.45.033.67.005 1.48-.068 2.387-.147 1.815-.468 3.966-.813 6.07l1.185.193c.344-2.106.673-4.299.824-6.167.075-.933.107-1.8.071-2.542-.035-.727-.137-1.396-.369-1.896l-1.089.505zm.274-3.776c-.567.567-.856 1.181-.856 1.873 0 .654.26 1.298.597 1.932l1.06-.563c-.314-.59-.457-1.018-.457-1.368 0-.313.114-.636.504-1.025l-.848-.85zm-1.89-5.595c1.337 1.431 2.103 2.62 2.379 3.562.136.462.147.842.07 1.155-.074.308-.243.593-.536.856l.801.893c.454-.407.764-.898.902-1.466.136-.563.095-1.161-.085-1.776-.356-1.21-1.274-2.566-2.654-4.043l-.877.82zm-7.296-1.906c2.569-.844 5.424-.106 7.295 1.905l.879-.817c-2.186-2.35-5.53-3.22-8.549-2.228l.375 1.14zm-4.758 5.852c.317-2.71 2.184-4.97 4.765-5.854l-.389-1.136c-3.006 1.03-5.196 3.668-5.568 6.85l1.192.14zm-2.473 3.468a66.224 66.224 0 012.349-3.167l-.944-.741a67.197 67.197 0 00-2.392 3.225l.987.683zm.051-.594a4.14 4.14 0 00-3.762-2.396v1.2a2.94 2.94 0 012.673 1.7l1.089-.504zm-3.746-2.396c-1.705-.044-3.221.945-3.929 2.494l1.091.498c.517-1.13 1.603-1.824 2.806-1.792l.032-1.2zm-3.933 2.5c-.665 1.51-.406 3.336.722 4.554l.88-.816c-.786-.848-.986-2.16-.504-3.253l-1.098-.484zm.737 4.57h.001l.848-.848-.849.849zm.001 0c1.131 1.132 2.055 2.058 2.873 2.632l.689-.983c-.712-.499-1.549-1.333-2.714-2.497l-.848.849zm2.872 2.63l.01.008.689-.983-.008-.006-.691.982z" fill="#000" mask="url(#b)"/><path fill-rule="evenodd" clip-rule="evenodd" d="M221.112 59.597c.995-.23 1.952.383 2.182 1.378a1.807 1.807 0 01-1.378 2.181 1.807 1.807 0 01-2.181-1.377c-.23-.957.382-1.952 1.377-2.182z" fill="#000"/><path fill-rule="evenodd" clip-rule="evenodd" d="M223.983 74.1c-.23.421-.345.65-.345.65-1.454-.153-2.717-1.07-3.865-2.716 1.454 1.377 2.87 2.066 4.21 2.066z" fill="#8E1E1C"/><path fill-rule="evenodd" clip-rule="evenodd" d="M224.404 74.942c.153-.23.268-.344.459-.344.23.038.383.191.383.42.038 2.335-1.761 4.363-3.981 5.09-2.219.727-4.86.153-6.238-1.684-.612-.842-.497-2.028.268-2.717.766-.727 1.914-.765 2.756-.153 2.564 2.105 4.937 1.531 6.353-.612zm-9.338-15.957c-.23.191-.268.498-.115.765.153.23.459.345.727.23 3.176-1.301 5.702-2.372 7.501-3.29a1.09 1.09 0 00.612-.957c.039-.421-.191-.804-.535-1.034a1.126 1.126 0 00-1.149-.038c-2.526 1.11-4.898 2.602-7.041 4.324z" fill="#1A1613"/><path fill-rule="evenodd" clip-rule="evenodd" d="M220.5 79.955c-1.722.268-3.865-.191-4.975-1.645a1.799 1.799 0 01.191-2.297c.498-.459 1.187-.612 1.799-.382-.306.574-.383 1.263-.23 1.951.345 1.455 1.761 2.526 3.215 2.373z" fill="#010101"/></g><defs><clipPath id="clip0"><path fill="#fff" d="M0 0h421v310H0z"/></clipPath><clipPath id="clip1"><path fill="#fff" transform="translate(8.112 228.037)" d="M0 0h46.237v34.895H0z"/></clipPath><clipPath id="clip2"><path fill="#fff" transform="translate(87 204)" d="M0 0h74v65H0z"/></clipPath><clipPath id="clip3"><path fill="#fff" transform="translate(151 41)" d="M0 0h139v226H0z"/></clipPath><linearGradient id="paint0_linear" x1="267.417" y1="27.275" x2="160.981" y2="194.925" gradientUnits="userSpaceOnUse"><stop stop-color="#fff" stop-opacity="0"/><stop offset="1" stop-color="#82A9FF" stop-opacity=".21"/></linearGradient><linearGradient id="paint1_linear" x1="204.94" y1="290.578" x2="205.198" y2="255.583" gradientUnits="userSpaceOnUse"><stop stop-color="#fff" stop-opacity="0"/><stop offset="1" stop-color="#82A9FF" stop-opacity=".21"/></linearGradient><linearGradient id="paint2_linear" x1="90" y1="118.498" x2="310.005" y2="118.498" gradientUnits="userSpaceOnUse"><stop stop-color="#010101"/><stop offset="1" stop-color="#fff"/></linearGradient></defs></svg>