<svg width="257" height="260" viewBox="0 0 257 260" fill="none" xmlns="http://www.w3.org/2000/svg"><path d="M121 37h83v199h-83V37z" fill="#82A9FF" fill-opacity=".21"/><g clip-path="url(#clip0)"><path d="M70.506 79C84.586 79 96 67.49 96 53.292c0-14.199-11.414-25.709-25.494-25.709S45.01 39.093 45.01 53.292C45.011 67.49 56.426 79 70.506 79z" fill="#F3F2FF"/><path d="M70.506 53.291l2.134 25.617a24.78 24.78 0 01-2.134.092C56.416 79 45.01 67.499 45.01 53.29h25.495z" fill="#B5B9FF"/><path d="M70.506 53.292H45.01c0-4.675 1.25-9.072 3.416-12.855l22.079 12.855z" fill="#D9DAFF"/><path d="M70.262 53.722L45.957 39.576l.244-.43a28.348 28.348 0 0110.307-10.364A27.74 27.74 0 0170.506 25h.488v29.122l-.732-.4zM47.268 39.207l22.75 13.254V25.984c-4.758.092-9.21 1.384-13.052 3.629a27.45 27.45 0 00-9.698 9.594z" fill="#fff"/><path d="M55.35 35.794l-8.783-5.105H12.503v-.86H46.78l8.996 5.227-.427.738zm-8.509 15.345l-6.983-1.876H12.412v-.86H39.98l7.075 1.906-.214.83zm6.343 18.974l-2.561 2.583H11.802v-.83h38.485l2.318-2.338.58.585zM1.067 27.276H4.94c.244 0 .458.215.458.46v3.906a.471.471 0 01-.458.462H1.067a.471.471 0 01-.457-.462v-3.905a.47.47 0 01.457-.461zm5.52 0h3.873a.47.47 0 01.457.46v3.906a.471.471 0 01-.457.462H6.587a.471.471 0 01-.457-.462v-3.905a.45.45 0 01.457-.461z" fill="#EEEDFF"/><path d="M1.769 46.71h3.873c.244 0 .457.216.457.462v3.905a.471.471 0 01-.457.462H1.769a.471.471 0 01-.458-.462v-3.905c0-.246.214-.461.458-.461z" fill="#D9DAFF"/><path d="M.457 69.344H4.33c.244 0 .458.215.458.461v3.906a.471.471 0 01-.458.461H.457A.471.471 0 010 73.711v-3.906a.47.47 0 01.457-.461zm5.52 0H9.85a.47.47 0 01.457.461v3.906a.471.471 0 01-.457.461H5.977a.471.471 0 01-.457-.461v-3.906a.45.45 0 01.457-.461z" fill="#B5B9FF"/></g><g clip-path="url(#clip1)"><path d="M137.208 67.057c3.368-.095 6.169 2.565 6.265 5.95.075 2.687-1.594 5.025-3.947 5.938 2.497 2.42 4.128 5.761 4.234 9.543.087 3.086-.873 5.952-2.492 8.289l.346-.01c7.43-.21 13.644 5.692 13.854 13.157.21 7.465-5.661 13.707-13.091 13.917-7.429.209-13.643-5.692-13.853-13.157a13.64 13.64 0 012.398-8.137l-.446.013c-7.58.164-13.844-5.786-14.058-13.35-.213-7.566 5.707-13.859 13.235-14.07a12.62 12.62 0 011.936.094 5.804 5.804 0 01-.35-1.883c-.046-3.385 2.601-6.2 5.969-6.294zM159.733 97.7c1.883-.053 3.411 1.398 3.464 3.289.053 1.891-1.391 3.426-3.273 3.479-1.882.053-3.41-1.398-3.463-3.289-.054-1.891 1.39-3.426 3.272-3.48zm-8.612 28.583c1.387-.039 2.558 1.073 2.598 2.467.039 1.393-1.068 2.57-2.455 2.609-1.387.039-2.558-1.073-2.598-2.467-.039-1.393 1.068-2.57 2.455-2.609z" fill="#DBD9FF"/><path d="M185.825 47.357l-11.46 3.162s-17.519 13.344-35.953 39.913l.645 22.893c14.531-19.087 31.924-38.654 49.007-49.844l-2.239-16.124z" fill="#DBD9FF"/><path d="M234.952 0s1.32 20.434-31.056 51.829c0 0 .023 9.612-1.421 11.147-1.444 1.535-9.752 9.24-9.752 9.24s-1.322.585-1.7-.5c-.377-1.085-2.112-9.852-2.112-9.852l-.845 1.667s-2.546 1.118-7.693-3.867c0 0-1.772 2.192-3.705 2.196-.103-1.89 1.973-3.84 1.973-3.84-5.243-4.884-4.276-7.5-4.276-7.5l1.609-.943s-8.858-1.244-9.908-1.563c-1.099-.318-.592-1.677-.592-1.677s7.188-8.77 8.632-10.304c1.443-1.535 10.996-2.054 10.996-2.054C214.423-.268 234.952 0 234.952 0z" fill="#fff"/><path d="M234.952 0s1.319 20.434-31.057 51.829c0 0 .024 9.612-1.42 11.147-1.444 1.535-9.753 9.24-9.753 9.24s-1.322.585-1.699-.5c-.378-1.085-2.112-9.852-2.112-9.852l-.845 1.667s-1.665.744-5.002-1.602C210.976 49.786 234.952 0 234.952 0z" fill="#DBD9FF"/><path d="M189.228 60.809c-2.203-.785-4.42-2.067-6.401-3.754 5.627-6.136 13.856-16.678 13.856-16.678-5.566 4.789-12.12 11.449-15.588 15.033-1.736-1.794-3.184-3.945-4.144-6.358l-.978.476-1.61.942s-.967 2.617 4.277 7.5c0 0-2.078 1.901-1.974 3.84 1.883-.003 3.705-2.196 3.705-2.196 5.147 4.985 7.693 3.868 7.693 3.868l.846-1.668.318-1.005z" fill="#6DED02"/><path d="M189.228 60.809l-.317 1.055s1.736 8.817 2.112 9.852c.377 1.085 1.699.5 1.699.5s8.309-7.705 9.753-9.24c1.444-1.535 1.42-11.147 1.42-11.147-2.797 2.768-12.967 9.48-12.967 9.48-.599-.133-1.149-.316-1.7-.5zm-12.866-13.285c.993-3.465 8.69-13.543 8.69-13.543s-9.553.518-10.996 2.053c-1.444 1.535-8.632 10.304-8.632 10.304s-.507 1.36.592 1.677c1.1.318 9.909 1.564 9.909 1.564l.978-.476c-.165-.544-.378-1.085-.541-1.579zM216.01 6.81c4.691 6.392 9.758 10.284 13.237 12.377C235.399 7.06 234.952 0 234.952 0s-7.091-.099-18.942 6.81z" fill="#6DED02"/><path d="M225.659 16.748c1.317 1.01 2.48 1.823 3.539 2.44C235.399 7.06 234.952 0 234.952 0s-3.466 7.17-9.293 16.748z" fill="#2F70FE"/><path d="M207.548 35.438c3.556-.1 6.357-3.078 6.256-6.651-.101-3.573-3.065-6.389-6.621-6.288-3.556.1-6.357 3.078-6.257 6.651.101 3.573 3.066 6.389 6.622 6.288z" fill="#6DED02"/><path d="M207.514 34.244c2.9-.082 5.184-2.51 5.101-5.423-.082-2.914-2.499-5.21-5.398-5.128-2.9.082-5.184 2.51-5.102 5.424.082 2.913 2.499 5.209 5.399 5.127z" fill="#fff"/><path d="M210.386 25.347c2.088 1.984 2.182 5.318.211 7.465a5.246 5.246 0 01-2.094 1.355c.985-.227 1.962-.753 2.684-1.52 1.973-2.098 1.879-5.433-.211-7.466a5.168 5.168 0 00-5.336-1.144c1.674-.396 3.422.053 4.746 1.31z" fill="#DBD9FF"/><path d="M212.102 33.467a6.468 6.468 0 01-9.163.259c-1.477-1.403-2.126-3.327-2.029-5.173-.485 2.155.175 4.478 1.858 6.124a6.468 6.468 0 009.163-.258 6.531 6.531 0 001.771-3.985c-.218 1.052-.783 2.114-1.6 3.033zm-27.349 25.077l12.407-18.828-1.347 1.482.871-.771s-8.23 10.492-13.856 16.677c.609.481 1.267.96 1.925 1.44z" fill="#DBD9FF"/><path d="M181.787 34.222l-8.602 14.886c1.593.254 2.837.418 2.837.418l.978-.476c-.212-.492-.376-1.035-.54-1.578.993-3.465 8.689-13.544 8.689-13.544s-1.532.143-3.362.294zm22.108 17.606c-2.797 2.769-12.967 9.48-12.967 9.48-.549-.133-1.1-.317-1.65-.5l-.318 1.054s.406 2.08.865 4.31l14.043-11.803c.007-1.494.027-2.54.027-2.54z" fill="#2F70FE"/><path d="M176.553 33.174s-23.502 19.141-34.835 37.391c.05-.001 8.693-22.21 34.835-37.39z" fill="#fff"/></g><path fill-rule="evenodd" clip-rule="evenodd" d="M155.459 234.549c13.017 3.429 35.383 4.581 63.863 4.403 26.432.019 37.022 2.737 36.626 7.511-3.067 7.403-46.767 11.189-121.768 11.346-61.915.193-90.779-4.245-99.116-11.917-12.662-13.213 80.476-21.683 120.395-11.343z" fill="url(#paint0_linear)"/><path d="M128.51 15.036s10.884-1.513 13.07-3.027c0 0 4.519 0 4.907 2.1 0 0-2.623 3.174.681 8.155 0 0 .485-2.198 2.478-2.393l-.292-7.765s.486-5.127-4.033-7.178c-4.518-2.051-14.43-.293-17.151 2.832l-1.02 3.028h-.826c0-.049-1.215 3.809 2.186 4.248z" fill="url(#paint1_linear)"/><path d="M146.536 14.06s-2.624 3.174.68 8.155c0 0 .486-2.198 2.478-2.393l-.291-7.227c-1.847-.245-2.867 1.465-2.867 1.465z" fill="#4F4387"/><path d="M135.652 43.702l.12.16h.001l.001-.002.007-.004.024-.019.097-.073.368-.276a217 217 0 005.393-4.202c1.504-1.213 3.043-2.497 4.271-3.615.613-.56 1.151-1.08 1.569-1.531.284-.307.52-.59.686-.835.543.893 1.221 1.748 1.933 2.595l-.155.225a46.54 46.54 0 00-.672 1.023 73.192 73.192 0 00-2.293 3.851l-6.841 8.118-4.802-4.968-.121-.126-.141.103-2.888 2.115.466-3.365h.096l.019-.178.236-2.175.497.682c.766 1.05 1.543 2.118 1.977 2.626l.122.143.15-.112-.12-.16z" fill="#fff" stroke="#000" stroke-width=".4"/><path d="M140.171 49.415l-4.956-5.078-3.401 2.49c-1.36 1.514-10.835 12.404-11.612 21.78-.826 10.108 0 30.911-2.721 40.776-.243.928-.486 1.807-.729 2.686 1.603.732 3.887 1.562 6.316 1.758 3.596.244 13.945-.342 18.852-.684-2.526-8.448-5.344-20.266-5.782-32.474-.583-16.262 6.705-31.79 11.078-39.555l-7.045 8.301z" fill="#fff"/><path d="M147.168 41.065c-4.373 7.813-11.661 23.293-11.078 39.555.437 12.208 3.255 24.026 5.782 32.474 1.117 3.663 2.137 6.69 2.963 8.839l2.916-.391.048-.049c1.312-1.074 2.527-2.197 3.644-3.467 9.863-11.231 10.398-29.007 10.398-29.007-8.211-34.135 1.7-44.34 1.7-44.34s-8.211-3.517-13.118-8.84c-.049.05-1.361 1.954-3.255 5.226z" fill="#36336B"/><path d="M144.69 121.493c.048.196.145.342.194.489l2.915-.391.049-.049c1.312-1.074 2.526-2.197 3.644-3.467 9.863-11.232 10.397-29.007 10.397-29.007-5.344-22.317-3.012-34.379-.728-40.092 0 0-8.017 10.694-5.782 50.982-.049 0 .486 13.917-10.689 21.535z" fill="#27254D"/><path d="M163.493 44.727s-9.912 10.206-1.701 44.34c0 0-.534 17.776-10.397 29.008 2.818 1.807 7.531 4.444 11.709 5.128 2.235-3.077 4.567-6.495 5.199-8.009l8.648-20.07s-4.907-33.696-4.907-46.979c.049 0-3.012-2.246-8.551-3.418z" fill="#36336B"/><path d="M155.816 120.614c2.284 1.172 4.907 2.198 7.337 2.637 2.235-3.076 4.567-6.494 5.199-8.008L177 95.173s-4.907-33.696-4.907-46.979c0 0-1.506-1.074-4.276-2.148 1.36 7.96 2.575 18.703.243 22.024-3.838 5.469 9.912 18.312 4.227 25.393-4.033 5.03-13.507 17.629-16.471 27.151z" fill="#27254D"/><path d="M163.104 123.252c-4.178-.733-8.891-3.37-11.709-5.128-1.069 1.27-2.284 2.393-3.644 3.467 0 0 4.518 5.323 9.037 7.423l1.603.537c.049 0 2.332-2.979 4.713-6.299z" fill="#fff"/><path d="M118.064 63.284s-2.235 17.873-3.547 22.708c0 0-6.122 18.801-4.761 42.143l2.137-.147s2.381-7.178 4.859-15.919c.243-.879.486-1.758.729-2.686 2.721-9.864 1.846-30.668 2.721-40.776.777-9.425 10.252-20.266 11.612-21.78.097-.098.146-.195.146-.195l.534-3.858c-.971.635-9.377 6.202-10.64 7.423-.826.83-1.944 7.373-3.79 13.087z" fill="#36336B"/><path d="M114.517 85.992c1.312-4.835 3.547-22.708 3.547-22.708-1.02 3.223-2.332 6.153-3.936 7.765 0 0-10.883.244-18.511-5.177 0 0-2.138 2.54-2.478 8.009l1.117 5.274c0 .049 12.973 7.716 20.261 6.837z" fill="#36336B"/><path d="M114.517 85.992c1.312-4.835 3.547-22.708 3.547-22.708-1.02 3.223-2.332 6.153-3.936 7.765 0 0 .583 7.13-1.069 10.987 0 0-12.778-2.149-19.531-6.495l.728 3.614c0 .049 12.973 7.716 20.261 6.837z" fill="#27254D"/><path d="M94.92 66.036l-.064.099c-.22.343-.51.855-.809 1.539-.519 1.185-1.064 2.888-1.314 5.14L88.6 68.657c.157-2.105.977-3.598 1.764-4.572a7.443 7.443 0 011.241-1.216l.186.205a18.297 18.297 0 003.13 2.96zm-2.986-3.395s0 0 0 0h0zm-2.3.769c-.859 1.062-1.74 2.66-1.961 4.867a3.494 3.494 0 00-.343.055c-.326.067-.702.18-1.071.29l-.018.006c-.766.231-1.495.452-2.03.455a.977.977 0 01-.321-.11 4.187 4.187 0 01-.571-.357 13.75 13.75 0 01-1.345-1.147 29.06 29.06 0 01-1.075-1.082l.681-.181 1.781.805.457.207.204-.455s0 .001 0 0h0l.002-.004.018-.034c.017-.033.047-.085.09-.152.085-.135.225-.33.434-.557.417-.452 1.112-1.031 2.207-1.49l.322-.134-.016-.35h0v0h0v-.022l-.004-.069a35.849 35.849 0 01-.026-1.123c-.006-.694.007-1.522.076-2.124l.066-.578-.58.021h0-.022l-.077.001a5.991 5.991 0 01-1.217-.13 4.521 4.521 0 01-.268-.066c.732.011 1.457-.052 2.08-.134a19.106 19.106 0 001.766-.32l2.126 2.565a8.437 8.437 0 00-1.365 1.346z" fill="#fff" stroke="#000"/><path d="M83.68 60.45c.438.275.935.432 1.35.526.378.085.734.128 1.008.15-.028.436-.037.905-.039 1.335l-.479-.105-2.514-.55.302-.337.008-.009.007-.01-.387-.315.388.316h0v-.002l.002-.001.003-.005.009-.01a1.41 1.41 0 00.09-.136 1.818 1.818 0 00.252-.846zm2.143 2.68l.178-.253c.003.34.01.64.017.855v.016a7.998 7.998 0 00-1.039.591l.844-1.208zm-2.713 2.692l.35-.084c-.05.065-.095.125-.135.182l-.215-.098z" fill="#fff" stroke="#000"/><path d="M83.81 65.14l1.603-2.296-3.352-.732-1.555.537-.534 3.467 1.603-.44 2.235-.537z" fill="#fff"/><path d="M79.578 60.46l3.152-.04a.733.733 0 01-.062.267l-2.595.496a8.42 8.42 0 01-.354-.345 3.178 3.178 0 01-.199-.226.717.717 0 01.05-.134l.008-.019zm-.062.182v-.003.003z" fill="#fff" stroke="#000"/><path d="M116.752 112.069c-2.478 8.741-4.859 15.919-4.859 15.919s-6.753 25.882-6.948 48.883c0 0 12.73 19.435 10.69 50.591 0 0 5.49 6.056 14.576 3.223 0 0 1.117-42.827-6.705-53.717 0 0 1.846-12.599 6.608-16.847 0 0 1.36 15.334 6.267 23 0 0 7.823 29.154 1.021 48.541 0 0 0 .439-.098 1.123 3.499 2.637 11.758 2.881 11.758 2.881s14.917-35.355 1.167-62.116c0 0-1.361-24.71 5.781-40.874l-2.526.293c-2.332 2.1-4.47 3.028-4.47 3.028l-5.879-9.571s-.049 0-3.741.537c-3.693.537-2.916-1.661-2.916-1.661 1.895-.195 7.094-3.125 7.094-3.125l1.312-.195a180.88 180.88 0 01-2.964-8.839c-4.859.342-15.256.928-18.852.684-2.478-.196-4.761-1.026-6.316-1.758z" fill="#36336B"/><path d="M145.807 235.324c1.846.245 3.207.245 3.207.245s14.916-35.356 1.166-62.117c0 0-1.36-24.709 5.782-40.873l-2.527.293a21.328 21.328 0 01-4.178 2.93c-2.478 7.911-5.733 22.17-3.547 37.455 0 0 9.717 38.237 0 61.335 0 .049.049.293.097.732zm-20.261-3.955c1.409 0 2.964-.244 4.665-.781 0 0 1.117-42.827-6.705-53.717 0 0 1.846-12.599 6.608-16.848 0 0-1.167-19.289-.972-25.442 0 0-12.244 20.119-10.155 40.532-.048.048 6.899 33.304 6.559 56.256z" fill="#27254D"/><path d="M149.014 235.569s-8.26-.244-11.758-2.881c-.292 1.758-1.506 5.127-5.879 6.885-.972 2.149-4.13 4.444-4.13 4.444s-5.442 1.416-5.782 3.467c-.291 2.1-.34 2.344-.34 2.344s18.123 3.711 23.856-2.149l.195.538s4.227.195 5.295-1.465c0 0 1.361-7.521-1.457-11.183z" fill="#36336B"/><path d="M149.014 235.569s-1.361-.049-3.207-.244c-1.166-.147-2.478-.342-3.79-.684-1.797-.44-3.547-1.074-4.713-1.953-.097.537-.291 1.22-.583 1.953-.097.195-.194.439-.291.635.097.097.194.146.291.244 1.749 1.318 4.665 2.686 9.572 3.076.292 2.637.583 6.251.34 9.621 1.312-.098 3.207-.391 3.838-1.417 0-.048 1.361-7.569-1.457-11.231z" fill="#27254D"/><path d="M131.377 239.573c.146-1.465-1.166-8.937-1.166-8.937-9.086 2.833-14.576-3.223-14.576-3.223s-2.867 10.402-11.273 11.232c-8.405.83-9.328.342-10.057 3.223 0 0 12.73 5.811 23.71.83 0 0 3.596-.146 3.79 1.319l5.442-.049c-.049.049 3.158-2.246 4.13-4.395z" fill="#36336B"/><mask id="a" fill="#fff"><path fill-rule="evenodd" clip-rule="evenodd" d="M128.629 16.306h-.022l-.043-1.172-.005-.098h.002l-.002-.048s5.976-.83 9.96-1.905c1.409-.39 2.527-.781 3.11-1.172 0 0 1.166 0 2.38.293 1.167.244 2.333.781 2.527 1.807l-.025.032c.01.038.018.076.025.115 0 0-.965 1.185-.988 3.217.015 1.297.415 2.921 1.668 4.791a11.02 11.02 0 01-.235-.218c.075.12.153.242.235.365 0 0 .535-2.247 2.478-2.393 1.333.268 1.325 1.72 1.314 3.87l-.002.623c0 2.49-2.818 4.15-2.818 4.15v3.545c-1.02 2.197-12.536 10.792-12.536 10.792-.631-.684-1.846-2.393-2.769-3.712l.295-2.484c-.339-.273-1.204-.999-1.704-1.695-.632-.879-2.089-6.69-2.089-6.69l-.486-7.13-.27-4.883zm.221 4.835l.486 7.13c-.923-.147-1.846-5.714-1.846-6.3 0-.635 1.36-.83 1.36-.83z"/></mask><path fill-rule="evenodd" clip-rule="evenodd" d="M128.629 16.306h-.022l-.043-1.172-.005-.098h.002l-.002-.048s5.976-.83 9.96-1.905c1.409-.39 2.527-.781 3.11-1.172 0 0 1.166 0 2.38.293 1.167.244 2.333.781 2.527 1.807l-.025.032c.01.038.018.076.025.115 0 0-.965 1.185-.988 3.217.015 1.297.415 2.921 1.668 4.791a11.02 11.02 0 01-.235-.218c.075.12.153.242.235.365 0 0 .535-2.247 2.478-2.393 1.333.268 1.325 1.72 1.314 3.87l-.002.623c0 2.49-2.818 4.15-2.818 4.15v3.545c-1.02 2.197-12.536 10.792-12.536 10.792-.631-.684-1.846-2.393-2.769-3.712l.295-2.484c-.339-.273-1.204-.999-1.704-1.695-.632-.879-2.089-6.69-2.089-6.69l-.486-7.13-.27-4.883zm.221 4.835l.486 7.13c-.923-.147-1.846-5.714-1.846-6.3 0-.635 1.36-.83 1.36-.83z" fill="#fff"/><path d="M128.607 16.306l-.999.037.036.963h.963v-1zm.022 0l.998-.055-.052-.945h-.947l.001 1zm-.065-1.172l.999-.037v-.018l-.999.055zm-.005-.098l-.138-.99-.912.127.051.919.999-.056zm.002 0l.138.99.894-.124-.033-.903-.999.037zm-.002-.048l-.138-.99-.895.123.033.903 1-.036zm9.96-1.905l.26.966.007-.002-.267-.964zm3.11-1.172v-1h-.304l-.253.17.557.83zm2.38.293l-.234.972.015.004.014.003.205-.979zm2.527 1.807l.775.631.294-.36-.087-.457-.982.186zm-.025.032l-.801-.598-.287.384.12.464.968-.25zm.025.115l.775.63.291-.356-.082-.453-.984.179zm-.988 3.217l-1-.01v.022l1-.012zm1.668 4.791l-.669.743 1.5-1.3-.831.557zm-.235-.218l.689-.724-1.538 1.253.849-.529zm.235.365l-.831.556 1.274 1.902.53-2.227-.973-.231zm2.478-2.393l.197-.98-.135-.028-.137.01.075.998zm1.314 3.87l1 .004-1-.005zm-2.82 4.773v1h.273l.235-.138-.508-.862zm0 0v-1h-1v1h1zm0 3.545l.907.42.093-.2v-.22h-1zM135.652 42.9l-.734.678.611.662.722-.539-.599-.801zm-2.769-3.712l-.993-.118-.045.38.219.312.819-.574zm.295-2.484l.993.118.065-.55-.431-.347-.627.78zm-1.704-1.695l-.812.584.812-.584zm-2.089-6.69l-.998.068.006.09.022.085.97-.243zm-.486-7.13l-.999.056.001.012.998-.068zm.437 7.081l-.157.988 1.24.197-.085-1.253-.998.068zm-.486-7.13l.998-.067-.073-1.075-1.067.153.142.99zm-.243-3.834h.022l-.001-2h-.021v2zm-1.042-2.135l.043 1.172 1.999-.074-.044-1.172-1.998.074zm-.005-.08l.006.098 1.997-.11-.006-.098-1.997.11zm.862-1.045h-.001l.138.99.137.991h.003l-.277-1.981zm-.863.979l.002.048L129.56 15l-.002-.048-1.999.073zm10.7-2.907c-1.946.524-4.399.994-6.383 1.335a134.637 134.637 0 01-3.39.535l-.049.007-.012.002h-.004l.138.99.137.991h.005l.014-.002.052-.008a61.995 61.995 0 00.938-.138c.627-.096 1.505-.234 2.509-.406 2-.343 4.527-.826 6.565-1.375l-.52-1.931zm2.813-1.038c-.429.288-1.391.643-2.82 1.04l.534 1.927c1.39-.385 2.662-.811 3.399-1.305l-1.113-1.662zm3.172.152a12.03 12.03 0 00-1.798-.28 12.55 12.55 0 00-.796-.04h-.021v1l-.001 1c-.001 0 0 0 0 0h.036l.13.003c.115.004.283.013.487.03.412.033.953.1 1.494.231l.469-1.944zm3.274 2.593c-.165-.872-.738-1.47-1.345-1.855-.6-.38-1.311-.61-1.959-.745l-.41 1.958c.519.108.974.271 1.297.476.316.2.423.385.452.538l1.965-.372zm-.206.817l.006-.008-.002.002-.002.003-.001.002h-.001v.001l-.776-.631-.776-.631-.001.002-.002.002-.005.005c-.003.005-.006.01-.011.015l-.031.041 1.602 1.197zm.208-.662a2.295 2.295 0 00-.041-.187l-1.936.5.009.043 1.968-.357zm-.972 3.407a5.02 5.02 0 01.417-1.978 3.695 3.695 0 01.339-.609l.013-.018c.001-.001.001-.001 0 0l-.002.003-.002.002h-.001v.001l-.776-.63-.776-.631h-.001l-.001.002-.002.003-.007.008-.016.02a4.753 4.753 0 00-.192.277 5.81 5.81 0 00-.404.762 7.005 7.005 0 00-.589 2.765l2 .023zm1.499 4.223c-1.153-1.722-1.487-3.16-1.499-4.246l-2 .023c.017 1.505.485 3.317 1.837 5.336l1.662-1.113zm-1.756 1.063c.083.079.168.158.256.236l1.338-1.486a12.983 12.983 0 01-.215-.199l-1.379 1.449zm1.756-.917a11.93 11.93 0 01-.217-.336l-1.698 1.057c.081.13.165.26.253.392l1.662-1.113zm1.572-2.833c-1.399.105-2.26.978-2.731 1.704a5.112 5.112 0 00-.603 1.303c-.013.04-.022.075-.029.1l-.008.032a.144.144 0 01-.003.011l-.001.005v.002c-.001 0-.001.001.972.233l.973.232-.001.002v.003l.001-.005a2.321 2.321 0 01.076-.232c.063-.166.161-.383.3-.597.282-.434.66-.758 1.204-.799l-.15-1.994zm2.389 4.871c.005-1.024.018-2.07-.182-2.884-.105-.428-.286-.873-.619-1.244a2.352 2.352 0 00-1.316-.727l-.394 1.961c.148.03.197.075.223.104.039.044.106.147.164.383.127.517.13 1.27.124 2.397l2 .01zm-.002.619l.002-.619-2-.01-.002.629h2zm-3.818 4.15l.508.862h.001l.001-.002.004-.002.011-.006.033-.02.109-.07a8.806 8.806 0 001.46-1.207c.778-.802 1.691-2.078 1.691-3.705h-2c0 .863-.496 1.662-1.127 2.313a6.832 6.832 0 01-1.186.968l-.014.008-.001.001h.002l.508.86zm0 1v-2 2zm1 2.545v-3.545h-2v3.545h2zM135.652 42.9l.599.801.002-.002c.001 0 .004-.002.006-.005l.026-.018.097-.074.37-.278a216.024 216.024 0 005.413-4.218c1.509-1.216 3.062-2.511 4.307-3.646a27.492 27.492 0 001.618-1.578c.416-.45.805-.923 1.005-1.353l-1.814-.843c-.056.12-.249.395-.658.837-.386.416-.897.91-1.498 1.459-1.201 1.095-2.718 2.36-4.215 3.567a216.159 216.159 0 01-5.363 4.18l-.365.274-.096.071a.376.376 0 01-.03.023l-.001.001h-.001l.598.802zm-3.588-3.138c.903 1.29 2.165 3.07 2.854 3.816l1.469-1.357c-.574-.621-1.742-2.26-2.685-3.606l-1.638 1.147zm.121-3.176l-.295 2.484 1.986.236.295-2.484-1.986-.236zm-1.523-.993c.588.818 1.552 1.619 1.889 1.89l1.254-1.558c-.341-.274-1.107-.926-1.519-1.5l-1.624 1.168zm-1.277-7.274l-.97.244.001.004a.098.098 0 01.003.013l.013.05.048.189.175.676c.148.562.351 1.323.575 2.113.224.787.47 1.614.704 2.305.116.345.232.667.344.938.103.25.232.53.384.742l1.624-1.167c.004.006-.011-.016-.045-.083a4.144 4.144 0 01-.114-.255c-.088-.215-.189-.49-.298-.814a48.443 48.443 0 01-.674-2.212 102.246 102.246 0 01-.738-2.74l-.046-.183a.574.574 0 01-.015-.06l-.001-.002v-.001l-.97.243zm-1.484-7.061l.486 7.13 1.995-.137-.485-7.13-1.996.137zm-.271-4.897l.27 4.884 1.997-.11-.27-4.884-1.997.11zm2.704 11.841l-.486-7.13-1.995.137.485 7.13 1.996-.137zm-3.844-6.231c0 .246.075.793.172 1.375.104.624.252 1.4.431 2.167.177.758.392 1.54.634 2.159.12.305.263.615.437.871.137.202.46.627 1.015.715l.314-1.975c.325.051.417.27.326.137a2.668 2.668 0 01-.23-.479c-.19-.484-.379-1.158-.548-1.883a32.962 32.962 0 01-.406-2.04 21.274 21.274 0 01-.112-.743c-.028-.217-.033-.305-.033-.304h-2zm2.36-.83l-.142-.99h-.004l-.007.001-.019.003-.06.01a4.51 4.51 0 00-.801.216 2.608 2.608 0 00-.759.428c-.259.218-.568.604-.568 1.162h2a.5.5 0 01-.143.367c-.003.002.008-.008.043-.026a1.21 1.21 0 01.133-.059 2.48 2.48 0 01.443-.118l.026-.005h.001l-.143-.99z" fill="#000" mask="url(#a)"/><path d="M143.961 47.267a87.296 87.296 0 013.207-6.202l-3.207 3.809-3.79 4.492-1.652-1.709-3.304-3.37-3.401 2.442 3.158-1.465 3.547 3.223 2.381 2.198 2.575-2.393c.194-.293.34-.635.486-1.025z" fill="#0AC41E"/><path d="M118.744 116.561c1.361.391 2.964.83 4.81 1.172 3.936.733 8.989 1.172 14.965.635a99.995 99.995 0 004.859-.586v-.049c-.437-1.367-.972-2.93-1.458-4.59-.972.049-2.138.146-3.401.195-.243 0-.534.049-.826.049-5.199.293-11.904.635-14.625.44-.777-.049-1.506-.147-2.186-.342-1.603-.342-3.012-.928-4.13-1.416-.34 1.172-.68 2.344-.972 3.418.778.342 1.798.684 2.964 1.074zm11.418 114.075c-1.652.538-3.207.733-4.664.782-6.268.049-9.912-3.956-9.912-3.956s-.243.977-.875 2.344c1.944 1.807 5.199 3.712 10.738 4.493-.097 2.637-.34 5.127-.729 7.374-.145.83-.291 1.66-.485 2.393h2.963s1.458-1.026 2.673-2.393c.583-.635 1.166-1.368 1.457-2.051.097-.635-.146-2.588-.437-4.444 0-.147-.049-.293-.049-.488-.291-2.149-.68-4.054-.68-4.054z" fill="#27254D"/><path d="M117.724 112.508c5.636-6.592 2.721-31.595 3.207-42.583.048-1.416.194-2.588.388-3.467 1.264-5.664 7.531-15.138 10.738-19.777l-.194.097-.049.05c-1.36 1.513-10.835 12.403-11.612 21.779v.195c-.826 10.206 0 30.765-2.673 40.581-.242.928-.485 1.807-.728 2.686.243.146.583.293.923.439z" fill="#0AC41E"/><path d="M94.645 65.14c-1.02 1.318-2.38 3.662-3.061 7.178l1.555 1.612c.34-5.47 2.478-8.009 2.478-8.009a13.57 13.57 0 00-.972-.781z" fill="#EEEDFF"/><path d="M151.454 118.799l.019-.021.005-.005a.027.027 0 01.005-.006c.314.193.664.404 1.011.613l.003.002h0l.002.002c2.677 1.596 6.33 3.477 9.761 4.216-.374.532-.759 1.047-1.134 1.549l-.001.001c-.114-.034-.218-.06-.315-.085-1.999-.623-3.657-1.386-4.976-2.191-2.239-1.378-3.581-2.881-4.38-4.075z" fill="#F3F2FF" stroke="#000"/><defs><linearGradient id="paint0_linear" x1="149.128" y1="261.217" x2="148.573" y2="236.646" gradientUnits="userSpaceOnUse"><stop stop-color="#fff" stop-opacity="0"/><stop offset="1" stop-color="#82A9FF" stop-opacity=".21"/></linearGradient><linearGradient id="paint1_linear" x1="137.888" y1="10.102" x2="137.888" y2=".293" gradientUnits="userSpaceOnUse"><stop stop-color="#36336B"/><stop offset="1" stop-color="#4F4387"/></linearGradient><clipPath id="clip0"><path fill="#fff" transform="translate(0 25)" d="M0 0h96v54H0z"/></clipPath><clipPath id="clip1"><path fill="#fff" transform="rotate(-1.615 177.974 -4043.563)" d="M0 0h121v129H0z"/></clipPath></defs></svg>