<svg width="283" height="241" viewBox="0 0 283 241" fill="none" xmlns="http://www.w3.org/2000/svg"><path fill-rule="evenodd" clip-rule="evenodd" d="M180.712 215.032c13.226 3.484 35.95 4.655 64.887 4.474 26.857.02 37.617 2.781 37.214 7.631-3.116 7.523-47.517 11.368-123.721 11.528-62.909.196-92.235-4.313-100.706-12.108-12.866-13.424 81.767-22.031 122.326-11.525z" fill="url(#paint0_linear)"/><path d="M205.208 75.232L164.441 34.69l-.743 6.408 34.355 34.134h7.155zm-82.007 0l34.355-34.134-.742-6.408-40.7 40.542h7.087z" fill="#6DED02"/><path d="M164.913 224.044h-9.382V33.814c0-2.564 2.093-4.723 4.725-4.723 2.565 0 4.725 2.091 4.725 4.722l-.068 190.231z" fill="#6DED02"/><path d="M155.599 201.311l-20.587 22.599h-10.056l30.71-33.932-.067 11.333zm9.112 0l20.586 22.599h10.057l-30.643-33.932v11.333z" fill="#2F70FE"/><path d="M160.256 41.368c1.267 0 2.295-1.056 2.295-2.36 0-1.304-1.028-2.361-2.295-2.361-1.268 0-2.295 1.057-2.295 2.36 0 1.305 1.027 2.361 2.295 2.361z" fill="#8EDEF2"/><path d="M248 165.356H73.321v9.242H248v-9.242z" fill="#2F70FE"/><path d="M248 55.4H73.321v4.52H248V55.4z" fill="#566CD3"/><path d="M78.95 164.856V60.419h163.353v104.437H78.951z" fill="#fff" stroke="#000"/><path d="M89.075 127.215v-3.048h56.304v3.048H89.075zm0 7.622v-3.047h56.304v3.047H89.075zm0 7.69v-3.047h56.304v3.047H89.075zm0 7.691v-3.048h56.304v3.048H89.075zm0 7.69v-3.048h56.304v3.048H89.075z" stroke="#000"/><path d="M234.568 101.406h-74.177v57.002h74.177v-57.002z" fill="#E5E9FF"/><path d="M169.367 100.529h-2.632v58.756h2.632v-58.756zm8.437 0h-2.632v58.756h2.632v-58.756zm8.437 0h-2.632v58.756h2.632v-58.756zm8.437 0h-2.632v58.756h2.632v-58.756zm8.437 0h-2.632v58.756h2.632v-58.756zm8.437 0h-2.632v58.756h2.632v-58.756zm8.437 0h-2.632v58.756h2.632v-58.756zm8.437 0h-2.632v58.756h2.632v-58.756z" fill="#fff"/><path d="M234.838 107.073h-75.797v2.631h75.797v-2.631zm0 8.499h-75.797v2.631h75.797v-2.631zm0 8.5h-75.797v2.631h75.797v-2.631zm0 8.567h-75.797v2.631h75.797v-2.631zm0 8.5h-75.797v2.631h75.797v-2.631zm0 8.499h-75.797v2.631h75.797v-2.631z" fill="#fff"/><path d="M160.661 138.575l-.743-2.158 31.926-10.524 26.66 6.881 15.862-8.23 1.012 2.024-16.604 8.634-.405-.135-26.458-6.813-31.25 10.321z" fill="#2747B3"/><path d="M218.639 136.822a3.172 3.172 0 003.173-3.171 3.172 3.172 0 00-6.345 0 3.172 3.172 0 003.172 3.171zm15.727-8.028a3.172 3.172 0 100-6.343 3.172 3.172 0 000 6.343zm-42.455 1.416a3.17 3.17 0 100-6.341 3.172 3.172 0 100 6.341zm-31.318 10.254a3.17 3.17 0 100-6.341 3.172 3.172 0 100 6.341z" fill="#F7B75D"/><path d="M175.24 86.363h-4.995v7.69h4.995v-7.69z" fill="#2747B3"/><path d="M185.162 77.93h-4.995v16.123h4.995V77.931z" fill="#F7B75D"/><path d="M195.083 83.462h-4.994v10.591h4.994v-10.59z" fill="#121F55"/><path d="M205.005 72.062h-4.995v21.991h4.995V72.062z" fill="#2747B3"/><path d="M214.927 68.757h-4.995v25.296h4.995V68.757z" fill="#F7B75D"/><path d="M224.849 62.753h-4.995v31.3h4.995v-31.3zM118.341 92.164h22.273c-.742 10.928-9.786 19.496-20.856 19.496-11.541 0-20.923-9.377-20.923-20.912 0-11.064 8.639-20.103 19.506-20.845v22.261z" fill="#121F55"/><path d="M121.108 88.521V71.252c6.682.472 12.419 4.318 15.592 9.849l-15.592 7.42z" fill="#6DED02"/><path d="M139.197 89.33H125.9l12.014-5.733a19.039 19.039 0 011.283 5.734z" fill="#2F70FE"/><path d="M121.947 4.115h-.742c-.473 0-1.148.067-2.025.135a58.327 58.327 0 00-7.222 1.012c-1.485.27-3.105.674-4.725 1.146a42.765 42.765 0 00-5.129 1.822c-.878.404-1.755.742-2.633 1.214-.405.202-.877.472-1.282.674l-.608.405-.337.203-.338.202c-.877.54-1.687 1.147-2.497 1.754-.405.337-.81.607-1.147.944-.203.203-.405.338-.54.54l-.54.54c-.743.742-1.418 1.484-2.025 2.293-.338.405-.608.81-.878 1.214l-.405.608-.404.607a23.364 23.364 0 00-2.363 5.329c-.54 1.821-.877 3.575-1.012 5.329a38.31 38.31 0 00-.068 4.79c0 .337.068.742.068 1.079.067.337.067.674.135 1.012 0 .135.067.337.067.472 0 .135.068.337.068.472.067.337.067.607.135.945.202 1.214.405 2.226.607 3.035.203.81.338 1.484.473 1.956.135.473.202.675.202.675s-.067-.27-.135-.675c-.067-.472-.27-1.079-.405-1.956-.135-.81-.337-1.889-.472-3.035 0-.27-.068-.608-.068-.945 0-.135 0-.337-.067-.472v-.472c0-.338-.068-.675-.068-1.012v-1.08c0-1.483 0-3.035.27-4.721.203-1.687.608-3.373 1.215-5.127a22.039 22.039 0 012.497-5.06l.405-.607.405-.607c.27-.405.608-.742.945-1.147.608-.742 1.283-1.416 2.025-2.09l.54-.473c.203-.135.405-.337.54-.472.405-.338.742-.607 1.147-.877.81-.54 1.62-1.08 2.43-1.552l.338-.202.337-.202c.203-.135.405-.203.608-.338.405-.202.81-.405 1.282-.607.81-.405 1.688-.742 2.565-1.08 1.687-.606 3.375-1.146 4.995-1.55 1.62-.406 3.172-.743 4.589-.945a56.006 56.006 0 016.952-.675c.81 0 1.485-.067 1.958-.067h.607l-.27-2.361z" fill="#F7B75D"/><path d="M129.574 10.524c-.27-.068-.472-.338-.405-.608l1.08-4.587c.068-.27.338-.472.608-.405.27.068.472.338.405.608l-1.08 4.587c0 .27-.338.472-.608.405z" fill="#B9B8F1"/><path d="M132.477 11.4c-1.89.81-4.252 1.957-6.682 1.754l-.27 1.012c2.362 1.012 5.737 2.496 6.682 2.9 1.552.675 2.227.203 2.227.203l5.602-2.496c0 .135-5.669-4.115-7.559-3.373zm5.872-10.118s-.338-.742-2.093-.81c-1.08-.067-4.724-.27-7.289-.472l-.27 1.012c2.295.944 3.847 3.103 5.13 4.654 1.349 1.62 8.369.338 8.369.338l-3.847-4.722z" fill="#6DED02"/><path d="M155.817 9.328c1.934 1.935 3.138 4.407 3.547 5.443-.83.744-3.009 2.414-5.704 3.234l-.003.001c-1.434.447-3.616.278-6.166-.292-2.526-.565-5.325-1.502-7.942-2.505a115.527 115.527 0 01-6.805-2.881 115.449 115.449 0 01-2.521-1.197l.782-3.187-.482-.118.482.118.783-3.189a114.724 114.724 0 012.793.087 116.6 116.6 0 017.376.546c2.789.302 5.711.746 8.222 1.395 2.532.655 4.557 1.497 5.638 2.545z" stroke="#000"/><path d="M154.548 18.214c3.307-1.147 5.399-3.305 5.399-3.305s-.877-2.901-3.307-5.397l-.607-.607c-1.148 1.686-2.835 4.992-2.295 9.579.27-.068.54-.203.81-.27z" fill="#6DED02"/><path d="M118.168 4.857s9.989 10.051 11.744 2.833c1.687-7.218-11.744-2.833-11.744-2.833z" fill="#F7B75D"/><path d="M131.329 7.083c-.135-.067-.877-.27-1.08-.202-.135 0-2.092-.068-3.172-.068l-.135.472c1.013.473 2.767 1.35 2.902 1.417.203.068.878.27 1.08.27.135 0 .81-.135 1.148-.27l.202-.877c-.27-.27-.81-.674-.945-.742zm5.535 2.766c.27-1.147 1.417-1.822 2.565-1.552a2.38 2.38 0 011.35.945c.27.472.405 1.08.27 1.619-.27 1.146-1.418 1.821-2.565 1.551a2.377 2.377 0 01-1.35-.944c-.338-.472-.405-1.08-.27-1.62zm8.302.472c-.27-.472-.743-.81-1.35-.944-1.147-.27-2.295.405-2.565 1.551-.135.54-.067 1.147.27 1.62.27.472.743.809 1.35.944 1.148.27 2.295-.405 2.565-1.552.135-.607.067-1.146-.27-1.619zm4.724 2.631c.135-.54.068-1.147-.269-1.619-.27-.472-.743-.81-1.35-.944-1.148-.27-2.295.404-2.565 1.551-.135.54-.068 1.147.27 1.62.27.471.742.809 1.35.944 1.147.337 2.295-.405 2.564-1.552z" fill="#2F70FE"/><path d="M84.473 84.125l.085.395h2.024c.005 0 .058.007.13.076a.442.442 0 01.113.163v2.769a.16.16 0 01-.052.123.188.188 0 01-.123.052h-2.018l-.09.387a8.729 8.729 0 01-.956 2.424l-.195.333.273.273 1.147 1.146a.167.167 0 01.056.119.167.167 0 01-.056.118l-2.025 2.024a.168.168 0 01-.118.056.168.168 0 01-.12-.056l-1.147-1.147-.272-.272-.333.194c-.794.463-1.55.837-2.418 1.022l-.395.085v2.024a.16.16 0 01-.052.123.189.189 0 01-.123.05h-2.835a.16.16 0 01-.124-.051.187.187 0 01-.051-.123v-2.017l-.388-.089a8.737 8.737 0 01-2.425-.956l-.333-.195-.272.273-1.148 1.147a.168.168 0 01-.119.056.168.168 0 01-.119-.056l-.353.353.353-.353-2.025-2.024a.167.167 0 01-.055-.119c0-.031.011-.074.055-.118l1.148-1.147.273-.273-.195-.333c-.463-.793-.837-1.549-1.023-2.416l-.084-.395h-2.024a.16.16 0 01-.124-.052.188.188 0 01-.051-.123v-2.833a.16.16 0 01.052-.123.188.188 0 01.123-.051h2.016l.09-.388c.191-.83.51-1.66.957-2.424l.194-.333-.273-.272-1.147-1.147a.167.167 0 01-.056-.119c0-.032.012-.074.056-.118l2.025-2.024a.168.168 0 01.119-.056c.03 0 .072.011.115.052l1.073 1.14.273.29.343-.201c.794-.463 1.55-.837 2.418-1.022l.395-.085v-2.024a.16.16 0 01.052-.123.189.189 0 01.123-.05h2.835a.16.16 0 01.124.051.187.187 0 01.05.123v2.016l.388.09a8.74 8.74 0 012.426.957l.333.194.272-.273 1.147-1.147a.168.168 0 01.12-.056c.031 0 .074.012.118.056l2.025 2.024a.167.167 0 01.056.119.167.167 0 01-.056.118l-1.147 1.147-.273.273.195.333c.463.793.837 1.549 1.022 2.416z" fill="#fff" stroke="#000"/><path d="M82.505 86.111a6.152 6.152 0 01-6.182 6.178 6.152 6.152 0 01-6.182-6.178 6.152 6.152 0 016.182-6.178 6.152 6.152 0 016.182 6.178z" fill="#fff" stroke="#000"/><path d="M76.602 81.898a4.223 4.223 0 11-.6 8.423 4.223 4.223 0 11.6-8.423z" fill="#fff" stroke="#000"/><path fill-rule="evenodd" clip-rule="evenodd" d="M76.12 86.651c.81.27 1.013.405 1.013.742 0 .337-.54.472-.878.472-.337 0-.675-.067-.945-.27-.067-.067-.202 0-.27.068l-.405.675c-.067.067-.067.202.068.27.337.202.742.337 1.147.404v.405c0 .135.068.202.203.202h.742c.135 0 .203-.067.203-.202v-.472c.81-.203 1.282-.81 1.282-1.484 0-1.282-1.08-1.62-1.822-1.822-.81-.27-.945-.337-.945-.607 0-.337.54-.405.877-.405.405 0 .81.203 1.08.405.068.068.068.068.135.068.068 0 .135 0 .135-.068l.54-.54a.205.205 0 000-.27 3.06 3.06 0 00-1.282-.741v-.473c0-.135-.068-.202-.203-.202h-.742c-.135 0-.203.067-.203.202v.405c-.877.135-1.485.742-1.485 1.552 0 1.146 1.08 1.484 1.755 1.686z" fill="#2F70FE"/><path d="M61.336 17.5h5.581c-.421 2.51-2.586 4.396-5.243 4.396-2.896 0-5.305-2.407-5.305-5.301 0-2.655 1.887-4.82 4.4-5.24v6.144h.567z" stroke="#000"/><g clip-path="url(#clip0)"><path d="M32.823 62.53c0 9.136-7.324 16.5-16.411 16.5C7.324 79.03 0 71.665 0 62.53c0-9.137 7.324-16.5 16.412-16.5 9.087 0 16.411 7.363 16.411 16.5z" fill="#fff"/><path d="M29.297 62.53c0 7.159-5.765 12.954-12.885 12.954-7.121 0-12.885-5.795-12.885-12.954 0-7.16 5.764-12.955 12.885-12.955 7.12 0 12.885 5.796 12.885 12.955z" fill="#2F70FE"/><path d="M25.16 62.53c0 4.84-3.933 8.727-8.68 8.727-4.816 0-8.681-3.955-8.681-8.727 0-4.841 3.933-8.727 8.68-8.727 4.748 0 8.681 3.886 8.681 8.727z" fill="#fff"/><path d="M20.48 62.53c0 2.25-1.83 4.09-4.068 4.09-2.238 0-4.07-1.84-4.07-4.09s1.832-4.091 4.07-4.091c2.238 0 4.069 1.84 4.069 4.09z" fill="#6DED02"/><path d="M40.69 63.825H16.412a1.291 1.291 0 01-1.289-1.295c0-.75.61-1.296 1.289-1.296H40.69c.746 0 1.288.614 1.288 1.296 0 .75-.542 1.295-1.288 1.295z" fill="#000C2D"/><path d="M40.08 62.257l4.136-2.523h5.087l-2.849 2.795 2.849 2.796h-5.087l-4.136-2.523v-.545z" fill="#000C2D"/></g><defs><linearGradient id="paint0_linear" x1="174.28" y1="242.128" x2="173.716" y2="217.163" gradientUnits="userSpaceOnUse"><stop stop-color="#fff" stop-opacity="0"/><stop offset="1" stop-color="#82A9FF" stop-opacity=".21"/></linearGradient><clipPath id="clip0"><path fill="#fff" transform="translate(0 46.03)" d="M0 0h114v33H0z"/></clipPath></defs></svg>