<svg width="380" height="256" viewBox="0 0 380 256" fill="none" xmlns="http://www.w3.org/2000/svg"><path fill-rule="evenodd" clip-rule="evenodd" d="M171.7 215.803c-22.188 6.238-60.437 8.807-109.185 9.25-45.239.73-63.292 5.681-62.49 13.878 5.443 12.649 80.336 18.006 208.705 16.302 105.973-1.298 155.257-9.688 169.325-23.097 21.326-23.051-138.303-35.162-206.355-16.333z" fill="url(#paint0_linear)"/><path opacity=".1" d="M85.197 41.748h179.06v185.849H85.197V41.748z" fill="#7BD53D"/><path d="M349.661 230.403v-16.647h-7.179l4.307 16.647h2.872zm-27.629 0v-16.647h7.535l-4.523 16.647h-3.012z" fill="#292678"/><path d="M350.413 147.146c-.183-14.633.459-27.07 1.151-35.88.349-4.456.712-7.984.987-10.399a191.92 191.92 0 01.41-3.332l-13.588-5.425H328.36l-14.579 7.278 1.783 47.758h34.849z" fill="#fff" stroke="#000"/><path d="M334.648 110.618l.001.002a73.585 73.585 0 001.014 3.727h0c1.906 6.375 4.935 13.815 8.234 18.882 1.657 2.544 3.342 4.427 4.938 5.311.789.437 1.53.615 2.224.537.691-.078 1.393-.417 2.097-1.121h.001c3.625-3.618 5.479-9.666 6.413-15.717.929-6.028.93-11.946.93-15.215 0-3.063-1.753-5.389-3.574-6.979a16.363 16.363 0 00-3.054-2.093c-.633 3.377-1.132 9.321-1.479 14.587a473.167 473.167 0 00-.551 10.161l-.006.161-.002.041v.013l-.001.001-.499-.02.499.02-.069 1.732-.864-1.503-8.852-15.407h0l-1.406-2.451-6.684 2.084c.171.987.402 2.085.69 3.247zm3.378 18.559h0l-23.773-2.149-.439-.04-.016-.44-.98-26.328c-.095.098-.197.207-.306.326-.675.738-1.607 1.881-2.613 3.489-2.013 3.213-4.329 8.286-5.491 15.689-1.164 7.409.023 11.759 2.491 14.274 2.484 2.531 6.4 3.347 11.048 3.347h22.903v-7.914l-2.824-.254z" fill="#fff" stroke="#000"/><path d="M341.349 130.835s8.423-.465 8.889 7.002h-8.889v-7.002z" fill="#F9A28B"/><path d="M273.028 219.561l12.123 2.334 15.018-52.299s19.117 1.404 34.764 3.738c15.639 2.334 15.313-18.214 15.313-18.214v-7.467h-24.965s-24.557-.893-36.022 1.588c-2.909.628-4.974 1.477-5.581 2.615-.458.857-1.021 3.028-1.65 6.093-3.508 17.017-9 61.612-9 61.612z" fill="#292678"/><path d="M300.635 163.06l11.228 43.894-9.822 5.133-15.446-27.549 14.04-21.478z" fill="#292678"/><path d="M175.834 216.666l-.762 6.536h7.963l.763-6.071-7.964-.465zm26.208.465v6.071h7.49l.466-6.071h-7.956z" fill="#F9A28B"/><path d="M221.7 98.05l-10.295 121.415h-10.762V98.05H221.7z" fill="#2F70FE"/><path d="M213.277 98.05l-8.889 14.949-19.658 106.466h-12.634L187.069 98.05h26.208z" fill="#2F70FE"/><path d="M186.439 57.934c.809 8.811 1.568 21.25 1.388 35.886h33.452l2.701-47.761-14.573-7.275h-11.014l-13.579 5.422.085.56c.095.628.229 1.558.389 2.766.32 2.416.742 5.945 1.151 10.402z" fill="#fff" stroke="#000"/><path d="M186.603 94.32h36.029v4.202h-36.029V94.32z" fill="#6DED02"/><path d="M265.323 70.627l1.836-.4s2.546-2.688 3.908-3.773c1.369-1.086 1.421.657-.444 2.806 0 0 4.973-3.286 6.631-.369 1.828 3.22-1.051 5.96-7.52 5.975l-1.939.643-2.472-4.882z" fill="#F9A28B"/><path d="M238.447 94.295h0c.254-.05.736-.246 1.444-.602a48.336 48.336 0 002.54-1.403c1.978-1.156 4.448-2.702 7.069-4.39 5.239-3.373 11.058-7.3 14.683-9.77h.001a536.115 536.115 0 002.593-1.77l.616-.424-2.908-6.21-3.599 1.261h-.001l-1.19.421h-.001l-20.058 7.039-.493.173-.151-.5.478-.145-.478.145-.001-.001-.001-.004-.005-.016-.019-.062c-.016-.056-.042-.138-.075-.246a252.535 252.535 0 00-1.379-4.3 228.508 228.508 0 00-3.713-10.395c-1.488-3.845-3.161-7.764-4.836-10.89-.838-1.564-1.669-2.917-2.472-3.96-.58-.754-1.125-1.32-1.626-1.69l-5.438 31.274a150.407 150.407 0 007.892 8.548c2.158 2.154 4.448 4.265 6.481 5.775 1.017.756 1.954 1.35 2.767 1.725.829.383 1.454.502 1.88.417z" fill="#fff" stroke="#000"/><path d="M260.727 70.508l3.738 8.029a450.976 450.976 0 003.56-2.438l-3.279-7.001-4.019 1.41z" fill="#228652"/><path d="M144.334 68.293l-1.836-.399s-2.546-2.689-3.908-3.774c-1.369-1.086-1.421.657.444 2.806 0 0-4.973-3.286-6.631-.369-1.828 3.22 1.051 5.96 7.52 5.975l1.939.643 2.472-4.882z" fill="#F9A28B"/><path d="M141.632 73.773s1.384.96 3.56 2.438l-3.56-2.438zm0 0l3.279-7.002-3.279 7.002zm43.16-29.551c-.501.37-1.046.937-1.626 1.69-.803 1.044-1.634 2.397-2.472 3.96-1.675 3.127-3.348 7.045-4.836 10.89a228.507 228.507 0 00-3.713 10.397 251.583 251.583 0 00-1.379 4.299l-.075.245-.019.063-.005.015-.001.004-.001.001-.478-.144.478.144-.151.5-.493-.172-20.057-7.04h-.001l-1.191-.42h-.001l-3.599-1.261-2.908 6.21.616.423c.617.424 1.506 1.033 2.593 1.77l.001.001c3.625 2.47 9.444 6.396 14.683 9.77 2.621 1.687 5.092 3.233 7.069 4.39a48.41 48.41 0 002.54 1.403c.708.356 1.19.55 1.444.602h0c.426.085 1.051-.035 1.88-.417.813-.375 1.75-.97 2.767-1.725 2.033-1.51 4.323-3.621 6.481-5.775a150.402 150.402 0 005.639-5.978 164.106 164.106 0 002.236-2.55l.017-.02-5.438-31.275z" fill="#fff" stroke="#000"/><path d="M148.93 68.174l-3.738 8.029a450.976 450.976 0 01-3.56-2.438l3.279-7.001 4.019 1.41z" fill="#228652"/><path d="M202.619 23.912l-2.316 14.254 5.617 4.218 3.294-2.977.244-12.393-6.839-3.102z" fill="#F9A28B"/><path d="M199.326 17.597s-1.466 18.716 13.551 16.98c15.018-1.736 3.42-23.923 3.42-23.923l-14.773 2.6-2.198 4.343z" fill="#F9A28B"/><path d="M201.28 20.448s-3.908-5.207-7.446-2.482c-3.538 2.725-.977 10.532 3.782 9.668 4.759-.864 5.862-2.356 5.862-2.356l-2.198-4.83z" fill="#F9A28B"/><path d="M202.257 25.152l1.954-8.678s16.845 1.115 21.116-3.102c4.27-4.217 5.736-10.783 3.175-11.53-2.561-.745-9.763 6.197-9.763 6.197s.852-10.037-2.442-7.68c-3.294 2.355-3.538 6.447-3.538 6.447s-12.819.62-13.67 3.102c-.851 2.482-.119 3.102-.119 3.102s-2.56-.99-2.93.251c-.378 1.234 6.217 11.891 6.217 11.891z" fill="#000"/><path d="M209.377 34.325l-6.284-3.73 5.98 8.206.304-4.476z" fill="#F9A28B"/><path d="M220.597 26.556s-3.797-4.432-10.229-1.987c-6.439 2.445-7.504-3.516-7.504-3.516l-1.155 4.358s-.992 3.287.659 6.27c1.65 2.984 8.911 6.419 8.911 6.419s11.294-1.374 9.318-11.544z" fill="#000"/><path d="M310.19 207.847l1.317 3.582-5.98 2.866-1.613-3.228 6.276-3.22z" fill="#F9A28B"/><path d="M314.216 217.456l-2.709-6.026-5.98 2.865-7.66 11.995 16.349-8.834z" fill="#292678"/><path d="M306.423 217.634l-4.189-1.374m1.857 3.109l-3.19-1.034" stroke="#7BD53D" stroke-width="4" stroke-miterlimit="10"/><path d="M283.16 221.393l-1.199 3.818-6.579-1.425.599-3.826 7.179 1.433z" fill="#F9A28B"/><path d="M281.961 225.212l-1.635 6.329-16.505-4.38 11.561-3.375 6.579 1.426z" fill="#292678"/><path d="M273.154 223.106l.318 3.184m-2.635-2.386l.163 2.622" stroke="#7BD53D" stroke-width="4" stroke-miterlimit="10"/><path d="M202.042 221.77l-.644 7.415 18.17.746-10.399-7.526-7.127-.635z" fill="#292678"/><path d="M211.656 222.412l-1.465 3.353m3.508-1.721l-1.11 2.8" stroke="#7BD53D" stroke-width="4" stroke-miterlimit="10"/><path d="M182.747 221.349l1.029 8.656-18.356-.214 10.14-8.125 7.187-.317z" fill="#292678"/><path d="M173.044 221.533l1.657 3.974m-3.641-2.201l1.266 3.316" stroke="#7BD53D" stroke-width="4" stroke-miterlimit="10"/><path d="M301.22 168.998l-8.616 26.257 3.834 6.211 4.782-32.468zm-91.503-56.575l-7.172 5.015-2.154 15.931.718 17.726 2.865-31.87 5.743-6.802z" fill="#1A1A56"/><path d="M316.585 214.834h39.597a2.09 2.09 0 002.094-2.09v-35.511a5.383 5.383 0 00-5.388-5.377h-33.002a5.383 5.383 0 00-5.388 5.377v35.511c0 1.152.932 2.09 2.087 2.09z" fill="#7BD53D"/><path d="M211.989 39.495l-5.862 5.968-8.852-6.684" stroke="#228652" stroke-width="4" stroke-miterlimit="10"/><path d="M339.284 66.217s2.391-.798 3.59 1.913c1.199 2.703-1.273 9.07-1.273 9.07l-3.027-3.265.4-7.637.31-.081z" fill="#000"/><path d="M332.563 96.538l5.186-3.798-2.219-13.316-6.123 2.707.24 11.84 2.916 2.567z" fill="#fff" stroke="#000"/><mask id="a" fill="#fff"><path fill-rule="evenodd" clip-rule="evenodd" d="M339.335 73.27c-.01-.556-.036-.878-.036-.878l-2.257-4.343-15.151-2.6s-11.894 22.187 3.509 23.923c7.603.857 11.087-3.27 12.665-7.67.789.26 1.77.513 2.981.727 4.885.864 7.52-6.943 3.886-9.668-1.996-1.496-4.102-.602-5.597.51z"/></mask><path fill-rule="evenodd" clip-rule="evenodd" d="M339.335 73.27c-.01-.556-.036-.878-.036-.878l-2.257-4.343-15.151-2.6s-11.894 22.187 3.509 23.923c7.603.857 11.087-3.27 12.665-7.67.789.26 1.77.513 2.981.727 4.885.864 7.52-6.943 3.886-9.668-1.996-1.496-4.102-.602-5.597.51z" fill="#fff"/><path d="M339.299 72.392l.888-.461.093.18.016.2-.997.08zm.036.879l.597.802-1.561 1.161-.036-1.945 1-.018zm-2.293-5.222l.169-.986.489.084.229.44-.887.462zm-15.151-2.6l-.881-.472.34-.635.711.122-.17.985zm3.509 23.923l.112-.994-.112.994zm12.665-7.67l-.941-.337.329-.916.924.304-.312.95zm2.981.727l-.174.985.174-.985zm3.886-9.668l-.6.8.6-.8zm-5.633-.37l.997-.08v.003l.001.005.001.014.003.052.011.186c.008.16.018.391.023.682l-2 .036a17.341 17.341 0 00-.02-.615l-.009-.157a.581.581 0 00-.003-.037v-.008h-.001l.997-.08zm-1.37-4.803l2.258 4.343-1.775.922-2.257-4.343 1.774-.922zm-15.868-3.124l15.15 2.6-.338 1.97-15.151-2.6.339-1.97zm3.227 25.901c-4.143-.466-6.627-2.356-7.845-5.051-1.176-2.6-1.094-5.78-.557-8.733.542-2.98 1.576-5.88 2.464-8.021a50.321 50.321 0 011.16-2.59c.151-.312.275-.558.361-.727l.101-.194.027-.052.008-.014.002-.004.001-.001.881.471.882.472-.001.003a.112.112 0 01-.006.01l-.023.043-.091.177a47.649 47.649 0 00-1.455 3.172c-.86 2.074-1.837 4.828-2.343 7.613-.512 2.81-.515 5.503.411 7.55.883 1.953 2.688 3.488 6.247 3.89l-.224 1.986zm13.718-8.325c-.831 2.317-2.193 4.645-4.424 6.276-2.252 1.644-5.284 2.501-9.294 2.05l.224-1.988c3.593.405 6.104-.373 7.89-1.677 1.805-1.32 2.975-3.254 3.722-5.336l1.882.675zm1.866 1.374a22.67 22.67 0 01-3.119-.761l.624-1.9c.74.242 1.673.484 2.843.691l-.348 1.97zm4.66-11.453c2.314 1.736 2.486 4.925 1.588 7.33-.905 2.426-3.14 4.673-6.248 4.123l.348-1.97c1.777.315 3.302-.91 4.027-2.853.732-1.963.404-4.04-.915-5.03l1.2-1.6zm-6.793.507c.811-.603 1.854-1.2 3.027-1.414 1.212-.22 2.526-.023 3.766.907l-1.2 1.6c-.755-.566-1.493-.67-2.207-.54-.753.138-1.51.544-2.193 1.052l-1.193-1.605z" fill="#000" mask="url(#a)"/><path d="M337.493 78.67s5.026-10.621 3.472-15.156c-1.555-4.535-9.089-.118-15.551-3.582 0 0-4.463-1.75-7.016 1.433-2.554 3.183.318 8.752 4.226 7.88 3.908-.879 9.97-2.784 11.161-.716 1.199 2.068 2.872 2.467 2.872 2.467l.836 7.674z" fill="#000"/><path d="M339.921 105.325s-.222-2.718-.548-5.303c-.325-2.585-1.946-6.47-2.916-6.787-.969-.325-.969 1.617-.969 1.617s-3.568-3.235-4.863-3.235c-1.295 0 2.916 5.495 2.916 5.495s-2.59 1.618-1.946 3.235c.644 1.618 3.922 6.359 3.922 6.359l4.404-1.381z" fill="#F9A28B"/><path d="M270.63 69.253l1.088 3.545m6.38-4.543l-4.626 1.36m4.626 1.189l-3.753-.081m3.59 2.392l-3.826-1.033m71.363 62.543l4.944 2.223m-3.908-3.657l2.554.872M132.329 65.397l3.471 1.551m-4.485.118l4.248 1.19m-4.13 1.078l4.012.355" stroke="#2F011C" stroke-width="4" stroke-miterlimit="10"/><path d="M198.652 23.084s-.296-3.582-5.262-2.563m2.257 2.622s.318-1.832 2.235-1.75" stroke="#000" stroke-width="4" stroke-miterlimit="10"/><path d="M95.974 122.445h170.8v4.299h-170.8v-4.299z" fill="#CBCBCB"/><path d="M127.185 229.273l-9.326-103.6m-6.217.716l-8.378 101.932m22.011-19.58l-20.575.243" stroke="#228652" stroke-width="4" stroke-miterlimit="10"/><path d="M127.185 229.273l-9.326-103.6m-6.217.716l-8.378 101.932" stroke="#979797" stroke-width="4" stroke-miterlimit="10"/><path d="M125.275 208.741l-20.575.243" stroke="#228652" stroke-width="4" stroke-miterlimit="10"/><path d="M259.476 229.628l-9.333-103.601m-6.217.717l-8.371 101.931" stroke="#979797" stroke-width="4" stroke-miterlimit="10"/><path d="M257.559 209.103l-20.568.236" stroke="#228652" stroke-width="4" stroke-miterlimit="10"/><path d="M135.445 122.446s-2.635-10.739-11.006-10.267c-8.371.48-10.288 10.267-10.288 10.267h21.294zm-5.832-34.758l-4.212 21.877a.714.714 0 01-.836.561.7.7 0 01-.563-.768l2.421-22.002a.71.71 0 01.755-.628l1.791.125c.422.03.725.421.644.835zm.725-2.556a1.974 1.974 0 01-1.976-1.972c0-1.09.885-1.972 1.976-1.972s1.976.883 1.976 1.972c0 1.09-.885 1.972-1.976 1.972zm18.822 10.916l-13.649-11.942a.849.849 0 00-1.169 1.226l11.694 12.2a.853.853 0 00.725.252l1.954-.259c.718-.088 1-.997.445-1.477zm10.524 10.016l-13.367 3.767s-4.581-9.469 3.805-11.441c8.03-1.906 9.562 7.674 9.562 7.674z" fill="#979797"/><path d="M155.438 107.663a3.967 3.967 0 00-.041-.179l-4.543 1.286c.034.053.073.114.119.18.163.236.401.539.703.813.606.551 1.436.964 2.442.561.518-.208.845-.498 1.05-.809.207-.314.298-.661.325-.99a3.16 3.16 0 00-.055-.862zm-.094-.357h0z" fill="#fff" stroke="#000" stroke-width=".4"/><path d="M358.232 184.958l-.156 24.706a4.928 4.928 0 01-4.862 4.897l-19.954.295m18.229-40.991s4.604 3.036 5.67 6.891" stroke="#228652" stroke-width="4" stroke-miterlimit="10"/><path d="M112.02 58.33l-2.591 1.846-3.508-3.87" fill="#fff"/><path d="M112.02 58.33l-2.591 1.846-3.508-3.87" stroke="#7BD53D" stroke-miterlimit="10"/><path d="M77.803 117.091s4.93 5.414 7.89 26.338-.31 35.813-.31 35.813l-6.292-.369c.008 0 .748-58.761-1.287-61.782z" fill="#6DED02"/><path d="M81.134 128.479s2.96 40.054.185 55.195" stroke="#0AC41E" stroke-width="2" stroke-miterlimit="10"/><path d="M57.96 126.508s6.247 3.826 14.929 23.103c8.682 19.269 9.703 34.476 9.703 34.476l-6.143 1.396s-15.69-56.641-18.488-58.975z" fill="#6DED02"/><path d="M64.333 136.516s14.026 37.645 15.58 52.956" stroke="#0AC41E" stroke-width="2" stroke-miterlimit="10"/><path d="M97.202 136.973s-6.757 4.949-12.071 25.548c-5.314 20.599-2.154 35.747-2.154 35.747l8.156.207s3.22-58.68 6.07-61.502z" fill="#6DED02"/><path d="M92.088 148.022s-6.676 39.684-4.167 55.039" stroke="#0AC41E" stroke-width="2" stroke-miterlimit="10"/><path d="M103.923 155.187s-4.952 2.016-11.428 13.937c-6.476 11.921-6.868 21.781-6.868 21.781l5.01 1.388s11.088-35.799 13.286-37.106z" fill="#6DED02"/><path d="M99.045 161.236s-10.28 23.516-11.11 33.398" stroke="#0AC41E" stroke-width="2" stroke-miterlimit="10"/><path d="M55 158.488s5.196-.162 13.574 7.312 10.443 15.496 10.443 15.496l-4.677 3.006S57.376 158.754 55 158.488z" fill="#6DED02"/><path d="M60.81 161.686s14.077 15.673 16.572 23.553" stroke="#0AC41E" stroke-width="2" stroke-miterlimit="10"/><path d="M96.3 178.134l-2.961 49.47H73.363l-4.811-50.947 27.747 1.477z" fill="#979797"/><path d="M95.93 186.621l-26.453-.924-.925-9.04 27.747 1.477-.37 4.063" stroke="#002F7A" stroke-width="2" stroke-miterlimit="10"/><defs><linearGradient id="paint0_linear" x1="183.235" y1="261.486" x2="183.544" y2="219.226" gradientUnits="userSpaceOnUse"><stop stop-color="#fff" stop-opacity="0"/><stop offset="1" stop-color="#82A9FF" stop-opacity=".21"/></linearGradient></defs></svg>