<svg width="347" height="321" viewBox="0 0 347 321" fill="none" xmlns="http://www.w3.org/2000/svg"><g clip-path="url(#clip0)" fill="#82A9FF" fill-opacity=".21"><path d="M102.446 28.572c-.504-.264-.993-.252-1.441-.111-.226-.387-.624-.65-1.174-.723-5.673-.72-11.539 2.807-12.886 8.543-1.254 5.354 2.064 11.28 7.228 13.075 5.205 1.817 11.499-.895 13.808-5.912 2.574-5.521-.197-12.288-5.535-14.872zm-6.865 17.282c-3.48-1.127-5.796-5.186-4.938-8.762.88-3.618 4.728-6.056 8.348-5.607.36.027.7-.009.979-.131.144.236.374.41.71.586 3.51 1.68 5.587 5.99 3.941 9.743-1.404 3.29-5.603 5.275-9.04 4.17zm32.621 99.553c-.914-6.223-1.764-12.466-2.678-18.689-.355-2.387-4.136-2.222-3.781.165.914 6.223 1.764 12.466 2.678 18.689.313 2.365 4.136 2.222 3.781-.165z"/><path d="M134.584 132.112a4368.714 4368.714 0 00-19.888 6.375c-2.329.765-1.213 4.356 1.136 3.655a4368.38 4368.38 0 0019.887-6.375c2.329-.765 1.235-4.398-1.135-3.655zm-20.982-5.632c-9.454-6.889-16.363-16.792-19.295-28.153-2.674-10.526-1.661-21.751 2.594-31.706 1.867 3.18 3.692 6.338 5.559 9.517 1.252 2.106 4.455.082 3.203-2.024-2.257-3.867-4.513-7.734-6.811-11.623l.176-.337c.925-1.662-1.118-3.484-2.708-2.493-3.976 2.478-7.995 4.934-11.971 7.412-2.064 1.28-.07 4.525 2.015 3.203 2.191-1.32 4.363-2.704 6.554-4.025-8.813 22.326-1.727 48.64 18.06 62.986 1.988 1.418 4.611-1.34 2.624-2.757zM78.764 39.936C61.622 42.811 46.432 52.991 37.22 67.807c-1.294 2.06 2.066 3.821 3.36 1.762 8.402-13.577 22.646-23.179 38.34-25.847 2.364-.424 2.25-4.189-.157-3.786zM41.819 89.06c.423-5.2-3.767-9.973-8.87-10.555a2.37 2.37 0 00-.915.11c-.252-.131-.612-.16-1.017-.103-5.024.801-9.252 5.187-8.913 10.465.281 4.978 4.843 9.248 9.809 9.275 4.987-.015 9.486-4.205 9.906-9.192zm-9.447 5.353c-3.06.22-5.981-2.276-6.387-5.28-.466-3.197 2.102-6.36 5.253-6.855.192-.06.363-.078.555-.139.126.067.274.09.422.114 2.986.331 5.699 2.612 5.91 5.783.128 3.127-2.65 6.179-5.753 6.377zm27.227 1.177c-.063-1.106-.962-1.739-2.001-1.8-1.717-.095-3.434-.19-5.174-.244-1.038-.06-1.825 1.03-1.802 2.008.063 1.106.962 1.74 2.001 1.8 1.717.096 3.434.19 5.174.244.996.04 1.847-1.072 1.802-2.008zm13.631.76c.231-.953-.446-2.113-1.44-2.259-1.503-.197-2.964-.373-4.467-.57-.994-.146-2.024.388-2.257 1.446-.232.953.445 2.113 1.44 2.258 1.502.198 2.963.373 4.466.57.995.146 2.024-.388 2.258-1.446z"/><path d="M101.561 92.254c-.339-1.09-1.352-1.406-2.395-1.255-1.96.368-3.962.714-5.921 1.082-1.001.173-1.538 1.502-1.259 2.4.34 1.09 1.351 1.406 2.394 1.255 1.96-.368 3.962-.714 5.922-1.082 1.023-.215 1.537-1.502 1.259-2.4zm20.502-2.134c-1.423.059-2.847.118-4.248.135-2.464.104-2.265 3.912.157 3.786 1.423-.06 2.846-.118 4.248-.135 2.441-.062 2.307-3.89-.157-3.786zm21.021-1.593c-1.423.059-2.846.118-4.247.135-2.442.061-2.265 3.912.157 3.786 1.423-.06 2.846-.118 4.247-.135 2.442-.062 2.285-3.848-.157-3.786zm-58.762 5.049c-.597-.904-1.676-1.093-2.62-.622-.536.31-1.115.596-1.652.905-.879.452-1.161 1.807-.626 2.624.597.904 1.676 1.094 2.62.622.536-.309 1.115-.596 1.652-.905.901-.494 1.161-1.807.626-2.624zm-41.711 37.071a2688.67 2688.67 0 00-4.605-15.727c-.695-2.351-4.306-1.184-3.652 1.145a2734.84 2734.84 0 004.605 15.727c.695 2.35 4.348 1.205 3.652-1.145z"/><path d="M47.088 118.125c-6.08 2.61-12.14 5.283-18.22 7.893-2.227.979-1.134 4.613 1.135 3.655 6.08-2.61 12.14-5.283 18.22-7.893 2.228-.979 1.134-4.613-1.135-3.655zm33.117 25.79c-1.96-4.839-3.942-9.742-5.902-14.582-.91-2.248-4.54-1.145-3.653 1.145 1.961 4.839 3.942 9.743 5.903 14.582.931 2.206 4.561 1.103 3.652-1.145z"/><path d="M82.091 130.411a3020.93 3020.93 0 00-16.894 8.427c-2.187 1.108-.172 4.311 2.015 3.203a3020.965 3020.965 0 0016.894-8.427c2.165-1.065.15-4.269-2.015-3.203zM59.724 31.724c-2.076-4.416-4.13-8.874-6.204-13.29-1.038-2.208-4.241-.184-3.204 2.024 2.076 4.417 4.129 8.875 6.204 13.291.996 2.186 4.2.162 3.204-2.025z"/><path d="M59.98 19.083c-4.36 3.619-8.743 7.28-13.145 10.876-1.878 1.539.934 4.14 2.77 2.58 4.36-3.619 8.743-7.28 13.145-10.876 1.877-1.539-.893-4.118-2.77-2.58zM164.3 88.914l-7.77.113c-2.42.02-2.285 3.848.157 3.786l7.77-.113c2.461.002 2.305-3.784-.157-3.786zm19.651 2.144c-.02-1.085-.94-1.782-2.001-1.801l-3.522-.022c-1.019.003-1.867 1.008-1.802 2.008.02 1.084.94 1.781 2.001 1.8 1.166.022 2.355 0 3.522.022 1.041-.045 1.889-1.05 1.802-2.007zm38.303 2.313c.965-5.72-3.146-11.258-8.661-12.485a1.467 1.467 0 00-.678-.033c-.19-.046-.338-.07-.528-.116-5.66-.337-11.098 4.112-11.575 9.82-.474 5.603 3.852 11.038 9.419 11.756 5.483.673 11.085-3.475 12.023-8.942zm-11.839 5.12c-3.532-.618-6.259-4.302-5.826-7.886.524-3.859 4.288-6.34 7.977-6.124l.042.022c.042.022.126.066.19.046 3.507.765 6.322 4.28 5.781 7.969-.564 3.73-4.527 6.591-8.164 5.972z"/></g><g clip-path="url(#clip1)" fill="#82A9FF" fill-opacity=".21"><path d="M243.679 171.336c-.42-.242-.835-.249-1.221-.145-.178-.336-.508-.573-.973-.655-4.796-.808-9.903 1.987-11.246 6.815-1.252 4.507 1.363 9.658 5.689 11.362 4.361 1.724 9.804-.363 11.94-4.546 2.378-4.603.258-10.45-4.189-12.831zm-6.433 14.449c-2.918-1.077-4.746-4.607-3.893-7.617.873-3.045 4.228-4.983 7.289-4.476.305.036.596.017.836-.078.114.206.304.362.583.523 2.925 1.549 4.542 5.284 3.013 8.417-1.307 2.747-4.945 4.289-7.828 3.231zm24.277 85.736c-.561-5.32-1.067-10.655-1.629-15.975-.219-2.041-3.438-2.032-3.219.009.562 5.32 1.068 10.655 1.629 15.975.184 2.021 3.438 2.032 3.219-.009z"/><path d="M267.407 260.443c-5.701 1.565-11.402 3.13-17.123 4.729-2.005.57-1.181 3.661.839 3.146 5.701-1.565 11.401-3.129 17.122-4.729 2.006-.57 1.202-3.695-.838-3.146zm-17.637-5.513c-7.795-6.182-13.325-14.837-15.423-24.593-1.908-9.039-.659-18.544 3.302-26.856 1.476 2.767 2.918 5.513 4.395 8.28.991 1.833 3.783.224 2.792-1.609-1.784-3.365-3.567-6.729-5.386-10.114l.162-.28c.843-1.38-.83-3-2.216-2.213-3.465 1.968-6.965 3.916-10.43 5.885-1.798 1.016-.217 3.844 1.601 2.792 1.909-1.046 3.802-2.147 5.71-3.194-8.263 18.669-3.151 41.278 13.168 54.155 1.64 1.274 3.965-.979 2.325-2.253zm-26.611-74.756c-14.668 1.85-27.929 9.976-36.273 22.248-1.17 1.705 1.624 3.319 2.795 1.613 7.612-11.247 20.049-18.914 33.481-20.638 2.024-.279 2.056-3.482-.003-3.223zm-33.099 40.469c.54-4.404-2.856-8.606-7.173-9.277a2.025 2.025 0 00-.781.062c-.21-.121-.515-.157-.861-.123-4.298.507-8.042 4.088-7.937 8.585.067 4.241 3.796 8.028 8.015 8.222 4.239.16 8.208-3.245 8.737-7.469zm-8.214 4.223c-2.608.081-5.004-2.142-5.245-4.71-.286-2.732 2.007-5.331 4.702-5.643.165-.044.31-.054.476-.098.105.06.23.086.355.111 2.526.385 4.752 2.417 4.822 5.119.001 2.662-2.466 5.16-5.11 5.221zm23.098 1.943c-.014-.943-.757-1.512-1.638-1.6-1.456-.14-2.912-.28-4.388-.385-.881-.089-1.587.811-1.601 1.643.015.943.757 1.512 1.638 1.6 1.456.14 2.912.28 4.388.386.846.068 1.607-.847 1.601-1.644zm11.559 1.116c.229-.801-.306-1.81-1.146-1.968-1.27-.22-2.506-.42-3.776-.64-.84-.158-1.734.26-1.969 1.152-.23.801.305 1.81 1.146 1.968 1.27.22 2.505.42 3.776.64.84.158 1.733-.26 1.969-1.152z"/><path d="M240.722 225.426c-.251-.938-1.1-1.242-1.992-1.15-1.678.245-3.391.47-5.07.715-.856.113-1.358 1.224-1.152 1.996.25.938 1.099 1.242 1.991 1.15 1.678-.245 3.392-.47 5.07-.715.877-.147 1.359-1.223 1.153-1.996zm17.498-1.104c-1.212.001-2.424.002-3.615-.032-2.097.003-2.06 3.246.002 3.223 1.212-.001 2.423-.002 3.615.032 2.077.032 2.095-3.226-.002-3.223zm17.92-.626c-1.211.001-2.423.002-3.614-.032-2.077-.032-2.061 3.246.002 3.223 1.212-.001 2.423-.002 3.615.032 2.077.032 2.075-3.191-.003-3.223zm-50.115 2.257c-.476-.789-1.386-.988-2.204-.619-.467.244-.969.468-1.436.712-.763.353-1.049 1.495-.623 2.208.477.789 1.387.987 2.205.619.467-.244.968-.468 1.435-.712.784-.388 1.05-1.495.623-2.208zm-36.731 30.061c-1.117-4.52-2.233-9.04-3.37-13.525-.509-2.022-3.618-1.155-3.143.846 1.116 4.52 2.233 9.04 3.369 13.526.51 2.021 3.653 1.175 3.144-.847z"/><path d="M193.532 245.527c-5.258 2.007-10.501 4.07-15.758 6.077-1.927.755-1.123 3.881.838 3.146 5.258-2.008 10.501-4.07 15.759-6.077 1.926-.756 1.122-3.881-.839-3.146zm27.252 23.064c-1.499-4.18-3.013-8.416-4.511-12.596-.696-1.942-3.819-1.131-3.144.846 1.499 4.181 3.012 8.416 4.511 12.597.715 1.907 3.839 1.096 3.144-.847z"/><path d="M222.854 257.18a2638.051 2638.051 0 00-14.649 6.577c-1.898.866-.296 3.658 1.601 2.792a2638.4 2638.4 0 0014.65-6.577c1.877-.83.275-3.623-1.602-2.792zm-15.592-84.644c-1.611-3.825-3.202-7.685-4.813-11.51-.805-1.913-3.598-.303-2.792 1.61 1.611 3.825 3.201 7.685 4.812 11.51.771 1.892 3.563.282 2.793-1.61z"/><path d="M207.917 161.802c-3.831 2.924-7.682 5.883-11.548 8.788-1.649 1.242.651 3.551 2.265 2.288 3.831-2.925 7.682-5.884 11.548-8.788 1.649-1.243-.616-3.531-2.265-2.288zm86.24 62.957l-6.607-.172c-2.058-.067-2.076 3.191.002 3.223l6.607.173c2.092.087 2.09-3.136-.002-3.224zm16.627 2.503c.02-.922-.738-1.546-1.638-1.6l-2.993-.14c-.866-.033-1.622.792-1.601 1.644-.021.922.737 1.546 1.638 1.599.991.059 2.002.082 2.993.141.886-.002 1.641-.827 1.601-1.644zm32.472 3.293c1.018-4.829-2.284-9.677-6.928-10.911a1.253 1.253 0 00-.576-.052c-.16-.046-.285-.071-.445-.117-4.798-.482-9.574 3.111-10.176 7.946-.597 4.744 2.891 9.513 7.597 10.316 4.637.763 9.541-2.569 10.528-7.182zm-10.239 3.94c-2.981-.647-5.17-3.872-4.678-6.903.579-3.261 3.864-5.24 6.991-4.929l.035.02c.035.02.104.061.16.046 2.954.772 5.225 3.857 4.637 6.973-.608 3.151-4.075 5.445-7.145 4.793z"/></g><g clip-path="url(#clip2)"><path d="M256.647 81.664h.001a21.78 21.78 0 011.051 6.734v136.957c0 12.102-9.833 21.941-21.926 21.941H131.818c-12.092 0-21.925-9.839-21.925-21.941V88.398c0-12.102 9.833-21.94 21.925-21.94h103.955c5.413 0 10.408 1.997 14.248 5.26a22.164 22.164 0 016.626 9.946z" fill="#fff" stroke="#000"/><path d="M248.034 83.124H137.411c-2.581 0-4.732-2.26-4.732-5.059 0-2.798 2.097-5.058 4.732-5.058h104.331c2.904 2.637 5.109 6.135 6.292 10.117z" fill="#2F70FE"/><path d="M161.835 215.237l-22.702-22.717-6.427 6.431 22.703 22.717 6.426-6.431z" fill="#6DED02"/><path d="M155.416 192.497l-22.702 22.717 6.427 6.43 22.702-22.717-6.427-6.43zm47.751-18.647l-22.702-22.717-6.427 6.431 22.702 22.717 6.427-6.431z" fill="#6DED02"/><path d="M196.7 151.138l-22.703 22.717 6.427 6.431 22.702-22.718-6.426-6.43zm-46.973-.262c-8.228 0-14.843 6.673-14.843 14.853 0 8.234 6.668 14.853 14.843 14.853 8.228 0 14.843-6.673 14.843-14.853 0-8.234-6.669-14.853-14.843-14.853zm0 23.033a8.174 8.174 0 01-8.175-8.18c0-4.52 3.657-8.18 8.175-8.18a8.174 8.174 0 018.174 8.18c0 4.52-3.657 8.18-8.174 8.18zm72.547-69.259c-8.228 0-14.843 6.673-14.843 14.852 0 8.234 6.669 14.853 14.843 14.853 8.229 0 14.843-6.673 14.843-14.853 0-8.179-6.668-14.852-14.843-14.852zm0 23.086a8.173 8.173 0 01-8.174-8.18c0-4.52 3.657-8.18 8.174-8.18a8.174 8.174 0 018.175 8.18 8.173 8.173 0 01-8.175 8.18z" fill="#6DED02"/><path d="M232.277 147.809c-2.635-3.014-5.27-6.028-7.905-8.987-.646-.7-1.775-.431-2.259.269-.323.484-.592.915-.914 1.399-.162.108-.377.269-.484.43-1.667 2.584-3.281 5.22-4.948 7.804-.968 1.56 1.452 2.959 2.474 1.453l3.065-4.682c3.012 13.884 5.486 29.006-1.505 42.029-2.958 5.489-7.476 10.332-13.391 12.592-6.992 2.691-14.951 1.668-21.566-1.56-7.314-3.552-13.122-9.472-17.908-15.983-1.076-1.453-3.549-.054-2.474 1.453 9.035 12.269 23.071 23.355 39.312 19.857 14.575-3.175 22.319-18.243 23.287-32.073.699-9.956-1.399-19.911-3.496-29.598 2.259 2.529 4.464 5.112 6.722 7.642 1.184 1.345 3.173-.7 1.99-2.045z" fill="#6DED02"/></g><defs><clipPath id="clip0"><path fill="#fff" transform="rotate(27.667 30.066 122.098)" d="M0 0h187.415v129.502H0z"/></clipPath><clipPath id="clip1"><path fill="#fff" transform="rotate(30 -167.32 462.247)" d="M0 0h159.409v110.15H0z"/></clipPath><clipPath id="clip2"><path fill="#fff" transform="translate(109.393 65.957)" d="M0 0h148.806v181.785H0z"/></clipPath></defs></svg>