<svg width="40" height="40" viewBox="0 0 40 40" fill="none" xmlns="http://www.w3.org/2000/svg"><path d="M.833 39.167h38.334M7.5 30.834h-5v8.333h5v-8.334zm10-8.334h-5v16.667h5V22.5zm10 3.334h-5v13.333h5V25.833zm10-11.667h-5v25h5v-25zM5 20.833A1.667 1.667 0 105 17.5a1.667 1.667 0 000 3.333zM15 12.5a1.667 1.667 0 100-3.333 1.667 1.667 0 000 3.333zm10 3.333a1.667 1.667 0 100-3.333 1.667 1.667 0 000 3.333zM35 4.167a1.667 1.667 0 100-3.334 1.667 1.667 0 000 3.334zm-28.667 14l7.334-6.334" stroke="#000" stroke-miterlimit="10" stroke-linecap="round" stroke-linejoin="round"/><path d="M16.5 11.334l7 2.333" stroke="#000" stroke-miterlimit="10" stroke-linejoin="round"/><path d="M33.833 3.833l-7.666 9" stroke="#000" stroke-miterlimit="10" stroke-linecap="round" stroke-linejoin="round"/></svg>