<svg width="49" height="49" viewBox="0 0 49 49" fill="none" xmlns="http://www.w3.org/2000/svg"><path d="M21.5 17.5c0 2.2-1.8 4-4 4h-12c-2.2 0-4-1.8-4-4v-12c0-2.2 1.8-4 4-4h12c2.2 0 4 1.8 4 4v12zm-20-10h20m6 10c0 2.2 1.8 4 4 4h12c2.2 0 4-1.8 4-4v-12c0-2.2-1.8-4-4-4h-12c-2.2 0-4 1.8-4 4v12zm20-10h-20m-6 36c0 2.2-1.8 4-4 4h-12c-2.2 0-4-1.8-4-4v-12c0-2.2 1.8-4 4-4h12c2.2 0 4 1.8 4 4v12zm-20-10h20m6 10c0 2.2 1.8 4 4 4h12c2.2 0 4-1.8 4-4v-12c0-2.2-1.8-4-4-4h-12c-2.2 0-4 1.8-4 4v12zm20-10h-20" stroke="#000" stroke-miterlimit="10" stroke-linecap="round" stroke-linejoin="round"/></svg>