<svg width="48" height="48" viewBox="0 0 48 48" fill="none" xmlns="http://www.w3.org/2000/svg"><path d="M19 37c9.941 0 18-8.059 18-18S28.941 1 19 1 1 9.059 1 19s8.059 18 18 18zm12.8-5.2L47 47" stroke="#000" stroke-miterlimit="10" stroke-linecap="round" stroke-linejoin="round"/><path d="M16 21.2v3.4L8 28m14-6.8v3.4l8 3.4" stroke="#000" stroke-miterlimit="10" stroke-linecap="round" stroke-linejoin="round"/><path d="M25.4 14.4c0 4.2-2.8 7.6-6.4 7.6-3.6 0-6.4-3.4-6.4-7.6 0-4.2 2.8-7.6 6.4-7.6 3.6-.2 6.4 3.2 6.4 7.6z" stroke="#000" stroke-miterlimit="10" stroke-linecap="round" stroke-linejoin="round"/><path d="M25.4 13.4h-.8c-2 .4-3.4-.4-4.6-2.4-.6 1.4-2.8 2.4-4.6 2.4-.8 0-2-.2-2.6-.6" stroke="#000" stroke-miterlimit="10" stroke-linecap="round" stroke-linejoin="round"/></svg>