<svg width="202" height="28" viewBox="0 0 202 28" fill="none" xmlns="http://www.w3.org/2000/svg"><g clip-path="url(#clip0)"><path d="M144.357 8V0h-8.08l8.08 8z" fill="url(#paint0_linear)"/><path d="M31.91 8.496c6.177 0 10.686 4 10.686 9.723 0 5.723-4.567 9.781-10.686 9.781-6.118 0-10.744-3.912-10.744-9.781 0-5.723 4.538-9.723 10.744-9.723zm24.328.526c2.781 0 5.387 1.11 6.294 3.445 1.405-2.277 3.865-3.591 6.44-3.445 4.773 0 8.813 1.898 8.813 9.46v9.547h-5.3v-9.576c0-3.767-1.434-5.14-3.57-5.197-2.928 0-4.45 2.248-4.45 5.343v9.43h-5.241v-9.46c0-3.766-1.347-5.313-3.484-5.343-2.4 0-4.537 1.49-4.537 5.548v9.255h-5.3V9.343h4.392l.44 2.277a6.26 6.26 0 015.503-2.598zm58.287-.03c4.772 0 9.925 2.19 9.925 9.46V28h-5.329v-9.664a4.523 4.523 0 00-1.083-3.62c-.849-.964-2.078-1.519-3.366-1.46-1.318-.117-2.635.379-3.601 1.372a4.933 4.933 0 00-1.376 3.708V28h-5.27V9.314h4.509l.468 2.277c1.23-1.664 3.103-2.627 5.123-2.598zm65.87.03c2.752 0 5.416 1.11 6.382 3.445 1.376-2.248 3.806-3.562 6.382-3.445 4.801 0 8.812 1.898 8.812 9.46v9.547h-5.241v-9.576c0-3.767-1.434-5.14-3.571-5.197-2.928 0-4.479 2.248-4.479 5.343v9.43h-5.241V18.54c0-3.766-1.346-5.314-3.483-5.343-2.401 0-4.567 1.49-4.567 5.547V28h-5.27V9.343h4.391l.44 2.277c1.288-1.751 3.337-2.744 5.445-2.598zM134.989 0v8.788h6.909v3.825h-6.909v7.066c0 1.255.556 2.452 1.522 3.212a3.67 3.67 0 003.22.7l.147-.029 3.132 3.182-.234.117A10.113 10.113 0 01138.268 28c-5.387-.088-8.315-3.416-8.373-8.146v-7.241h-3.543V8.788h3.543V0h5.094zm30.358 9.343v18.365h-4.508l-.498-2.277a6.095 6.095 0 01-5.064 2.598c-4.743.059-9.808-2.16-9.925-9.255V8.993l5.328 5.372v4.292a4.53 4.53 0 001.083 3.62c.849.964 2.079 1.519 3.367 1.46 1.318.117 2.635-.409 3.572-1.372a4.934 4.934 0 001.376-3.533V9.343h5.269zm-74.389-.847c6.646 0 10.657 4.701 10.101 11.68H85.982c.527 2.773 3.074 3.561 5.299 3.561.76 0 1.551-.087 2.283-.292l3.191 3.183c-1.844.963-3.864 1.46-5.914 1.372-5.942 0-10.187-3.97-10.187-9.752 0-5.78 4.274-9.752 10.305-9.752zm-63.732 6.979c-.995 1.693-.995 3.824 0 5.547.995 1.693 2.81 2.715 4.743 2.598a4.829 4.829 0 003.718-1.518c.995-1.022 1.522-2.394 1.493-3.854h.087a5.415 5.415 0 00-1.522-3.883 4.971 4.971 0 00-3.776-1.49c-1.933-.087-3.748.906-4.743 2.6zm68.885.846c-.703-2.277-2.81-3.708-5.094-3.504-2.254-.204-4.333 1.227-5.035 3.504H96.11zM15.165 9.343h4.186L8.402 23.971h11.213v4.03H0l10.978-14.658H.058v-4h15.107z" fill="#000"/></g><defs><linearGradient id="paint0_linear" x1="143.768" y1=".133" x2="140.51" y2="3.811" gradientUnits="userSpaceOnUse"><stop offset=".119" stop-color="#2F70FE"/><stop offset=".469" stop-color="#089DEE"/><stop offset=".768" stop-color="#09D191"/><stop offset=".974" stop-color="#6DED02"/></linearGradient><clipPath id="clip0"><path fill="#fff" d="M0 0h202v28H0z"/></clipPath></defs></svg>