<svg width="120" height="98" viewBox="0 0 120 98" fill="none" xmlns="http://www.w3.org/2000/svg"><g clip-path="url(#clip0)" fill="#6DED02"><path d="M0 48.187l41.796-23.551L.616 0 0 48.187zm7.697-35.482l19.551 11.698L7.39 35.636l.308-22.93zm12.007 74.062L41.718 98l-1.385-24.79-20.629 13.557zm1.77-.078l18.012-11.853 1.232 21.692-19.244-9.839zm88.058-37.341L120 36.566l-16.241-2.79 5.773 15.572zm.154-1.162l-5.003-13.634 14.163 2.401-9.16 11.233zm-47.031-2.711l-.77 10.536-.846 10.459 9.468-4.571 9.39-4.493-8.62-5.966-8.622-5.965zm41.026 43.383l3.464 3.873 3.463 3.874 1.617-4.88 1.616-4.959-5.08 1.007-5.08 1.085z"/></g><defs><clipPath id="clip0"><path fill="#fff" d="M0 0h120v98H0z"/></clipPath></defs></svg>